<?xml version="1.0" encoding="utf-8"?>
<!-- Generator: Adobe Illustrator 19.2.1, SVG Export Plug-In . SVG Version: 6.00 Build 0)  -->
<svg version="1.1" id="Layer_1" xmlns="http://www.w3.org/2000/svg" xmlns:xlink="http://www.w3.org/1999/xlink" x="0px" y="0px"
	 viewBox="0 0 173.8 68.8" style="enable-background:new 0 0 173.8 68.8;" xml:space="preserve">
<style type="text/css">
	.st0{fill:#FFFFFF;}
	.st1{fill:#BA2727;}
	.st2{fill:#25479A;}
</style>
<g>
	<polygon class="st0" points="-9.5,-62.4 183.3,-62.4 183.3,130.4 -9.5,130.4 	"/>
	<polygon class="st1" points="11.6,57.5 0,66.8 0,0 11.6,0 	"/>
	<polygon class="st1" points="12.3,60.5 2,68.8 173.8,68.8 173.8,60.5 	"/>
	<path class="st2" d="M52.8,25.1c0,0,6.8-1.8,6.8-12.8C59.8,0.7,45.8,0.5,45.8,0.5H20.2c0,0,2.2,0,2.2,6.5v43l9.6-7.6V29.8h13.5
		c0,0,6.5,0.2,6.5,6.6c0,0,1.3,8.3-6.8,8.3H31.9l-9.3,8.1h24.9c0,0,15.6-1.2,15.6-14.1C63.1,25.8,52.8,25.1,52.8,25.1L52.8,25.1z
		 M44.7,22.3H32.1V8.5h12.1c0,0,5.2,0.8,5.2,7C49.3,21.6,44.7,22.3,44.7,22.3L44.7,22.3z"/>
	<path class="st2" d="M146.9-0.8c-14.8,0-26.7,12.3-26.7,27.6s12,27.6,26.7,27.6c14.6,0,26.6-12.3,26.6-27.6
		C173.4,11.5,161.5-0.8,146.9-0.8L146.9-0.8z M146.9,46c-9,0-16.3-8.6-16.3-19.4s7.3-19.4,16.3-19.4c9.1,0,16.4,8.6,16.4,19.4
		S155.8,46,146.9,46L146.9,46z"/>
	<path class="st2" d="M70.6,53l8.8-7.6c2,0,8.8-0.7,8.8-0.7s15.3-2,15.5-19.6C103.7,10,87.9,9,87.9,9h-8.5v33.4l-9.3,7.8V5.8
		c0-4.8-1.5-5.2-1.5-5.2h20.3c0,0,26.3,0.5,26.3,24.6c0,27.6-26.9,27.9-26.9,27.9S74.4,53.5,70.6,53L70.6,53z"/>
</g>
</svg>
