<?xml version="1.0" encoding="utf-8"?>
<!-- Generator: Adobe Illustrator 19.2.1, SVG Export Plug-In . SVG Version: 6.00 Build 0)  -->
<svg version="1.1" id="Layer_1" xmlns="http://www.w3.org/2000/svg" xmlns:xlink="http://www.w3.org/1999/xlink" x="0px" y="0px"
	 viewBox="0 0 640 480" style="enable-background:new 0 0 640 480;" xml:space="preserve">
<style type="text/css">
	.st0{fill-rule:evenodd;clip-rule:evenodd;fill:#FFFFFF;}
	.st1{fill-rule:evenodd;clip-rule:evenodd;fill:#BA2727;}
	.st2{fill-rule:evenodd;clip-rule:evenodd;fill:#25479A;}
</style>
<g>
	<polygon class="st0" points="223,144 415.8,144 415.8,336.8 223,336.8 223,144 	"/>
	<polygon class="st1" points="244.1,263.9 232.5,273.2 232.5,206.4 244.1,206.4 244.1,263.9 	"/>
	<polygon class="st1" points="244.8,266.9 234.5,275.2 406.3,275.2 406.3,266.9 244.8,266.9 	"/>
	<path class="st2" d="M285.3,231.5c0,0,6.8-1.8,6.8-12.8c0.2-11.6-13.8-11.8-13.8-11.8h-25.6c0,0,2.2,0,2.2,6.5v43l9.6-7.6v-12.6
		H278c0,0,6.5,0.2,6.5,6.6c0,0,1.3,8.3-6.8,8.3h-13.3l-9.3,8.1H280c0,0,15.6-1.2,15.6-14.1C295.6,232.2,285.3,231.5,285.3,231.5
		L285.3,231.5z M277.2,228.7h-12.6v-13.8h12.1c0,0,5.2,0.8,5.2,7C281.8,228,277.2,228.7,277.2,228.7L277.2,228.7z"/>
	<path class="st2" d="M379.4,205.6c-14.8,0-26.7,12.3-26.7,27.6c0,15.3,12,27.6,26.7,27.6c14.6,0,26.6-12.3,26.6-27.6
		C405.9,217.9,394,205.6,379.4,205.6L379.4,205.6z M379.4,252.4c-9,0-16.3-8.6-16.3-19.4s7.3-19.4,16.3-19.4
		c9.1,0,16.4,8.6,16.4,19.4S388.3,252.4,379.4,252.4L379.4,252.4z"/>
	<path class="st2" d="M303.1,259.4l8.8-7.6c2,0,8.8-0.7,8.8-0.7s15.3-2,15.5-19.6c0-15.1-15.8-16.1-15.8-16.1h-8.5v33.4l-9.3,7.8
		v-44.4c0-4.8-1.5-5.2-1.5-5.2h20.3c0,0,26.3,0.5,26.3,24.6c0,27.6-26.9,27.9-26.9,27.9S306.9,259.9,303.1,259.4L303.1,259.4z"/>
</g>
</svg>
