<?xml version="1.0" encoding="utf-8"?>
<!-- Generator: Adobe Illustrator 19.2.1, SVG Export Plug-In . SVG Version: 6.00 Build 0)  -->
<svg version="1.1" id="Laag_1" xmlns="http://www.w3.org/2000/svg" xmlns:xlink="http://www.w3.org/1999/xlink" x="0px" y="0px"
	 viewBox="0 0 538.1 183.3" style="enable-background:new 0 0 538.1 183.3;" xml:space="preserve">
<style type="text/css">
	.st0{fill:#FED700;}
</style>
<g>
	<path class="st0" d="M500,0H36.4C16.6,0,0,16.1,0,36.4c0,11.8,5.9,23.1,16.1,30c1.1,0.6,2.7,2.1,238.5,114.2h0.6
		c4.3,1.6,9.1,2.7,13.9,2.7s9.1-1.1,13.9-2.7h0.6C518.8,68.1,520.9,66.5,522,65.9c9.6-6.9,16.1-17.7,16.1-30C537,16.1,520.3,0,500,0
		z"/>
	<g>
		<polygon points="170.4,92.2 170.4,103.4 183.2,103.4 183.2,92.2 187,92.2 187,119.5 183.2,119.5 183.2,106.7 170.4,106.7 
			170.4,119.5 167.2,119.5 167.2,92.2 		"/>
		<path d="M197.7,106.1c0-10.7,6.4-14.5,12.3-14.5c5.9,0,12.3,3.8,12.3,14.5c0,6.9-3.2,14.5-12.3,14.5
			C200.9,120.1,197.7,112.6,197.7,106.1 M218.1,106.1c0-5.4-1.6-11.3-8.6-11.3c-6.4,0-8.6,6.4-8.6,11.3c0,4.3,1.1,11.3,8.6,11.3
			S218.1,109.9,218.1,106.1"/>
		<polygon points="232.5,92.2 236.3,92.2 236.3,116.9 248.1,116.9 248.1,119.5 232.5,119.5 		"/>
		<polygon points="258.8,92.2 262.5,92.2 262.5,116.9 274.4,116.9 274.4,119.5 258.8,119.5 		"/>
		<path d="M296.9,92.2l10.2,27.3h-3.8l-2.1-6.9h-12.9l-2.7,7.5h-3.8l10.7-27.3h4.3L296.9,92.2L296.9,92.2z M300.1,109.4l-3.8-9.6
			c-0.6-1.6-1.1-3.2-1.6-4.8l0,0c-0.6,1.6-1.1,3.2-1.6,4.8l-3.8,9.6H300.1z"/>
		<path d="M315.1,92.2h4.8l11.3,19.3c0.6,1.1,1.6,2.7,1.6,3.8l0,0c0-1.1,0-2.1,0-3.2V92.8h3.8v27.3h-4.8l-11.3-19.3
			c-0.6-1.1-1.6-2.7-1.6-3.8l0,0c0,1.1,0,2.1,0,3.2V120h-3.8V92.2z"/>
		<path d="M348.3,92.2h8.6c8.1,0,12.9,5.9,12.9,13.9c0,7.5-4.3,13.9-13.4,13.9h-8.1V92.2L348.3,92.2z M352,116.9h3.8
			c4.8,0,10.2-1.6,10.2-10.7c0-6.4-2.7-10.7-10.2-10.7H352V116.9z"/>
	</g>
	<g>
		<path d="M80.3,19.3h21.4c0.6,0,1.6,0,2.7,0c1.1,0,2.7,0,3.8,0.6c1.1,0,2.7,0.6,4.3,1.1c1.6,0.6,2.7,1.1,3.8,2.1s2.1,2.1,2.7,3.8
			c0.6,1.6,1.1,3.2,1.1,5.4c0,2.7-0.6,4.3-1.1,5.9c-0.6,1.6-1.6,2.7-2.7,3.8c-1.1,1.1-2.1,1.6-3.2,1.6c-1.1,0.6-2.1,0.6-2.7,0.6v0.6
			c1.1,0,2.1,0.6,3.2,1.1c1.1,0.6,2.7,1.1,3.8,2.1c1.1,1.1,2.1,2.1,2.7,3.8s1.1,3.8,1.1,5.9s-0.6,4.3-1.1,5.9
			c-0.6,1.6-1.6,3.2-2.7,4.3c-1.1,1.1-2.7,2.1-3.8,2.7c-1.6,0.6-3.2,1.1-4.3,1.1c-1.6,0-2.7,0.6-4.3,0.6c-1.1,0-2.7,0-3.2,0H80.4
			L80.3,19.3L80.3,19.3z M101.2,40.2c1.6,0,3.2-0.6,4.3-1.1c1.1-1.1,1.6-2.1,1.6-3.8c0-2.1-0.6-3.2-1.1-4.3
			c-1.1-0.6-2.1-1.1-4.3-1.1h-7.5v10.2C94.2,40.2,101.2,40.2,101.2,40.2z M101.8,62.2c1.6,0,3.2-0.6,4.3-1.6
			c1.1-1.1,1.6-2.7,1.6-4.3c0-2.1-0.6-3.8-1.6-4.8c-1.1-0.6-2.7-1.1-4.8-1.1h-7.5v11.3h8.1L101.8,62.2L101.8,62.2z"/>
		<path d="M130.2,19.3h23.6c0.6,0,1.6,0,2.7,0s2.1,0,3.8,0.6c0.6,0.6,2.1,0.6,3.2,1.6c1.1,0.6,2.7,1.6,3.2,2.7
			c1.1,1.1,2.1,2.7,2.7,4.3c0.6,1.6,1.1,3.8,1.1,6.4c0,3.2-0.6,6.4-2.1,8.6c-1.1,2.7-3.2,4.3-6.4,5.9L173.3,73h-15.6l-8.6-20.4h-5.4
			V73h-13.9V19.4h0.4V19.3z M143.6,41.3h6.9c0.6,0,1.1,0,1.6,0c0.6,0,1.6-0.6,2.1-0.6c0.6-0.6,1.1-1.1,1.6-1.6
			c0.6-1.1,0.6-2.1,0.6-3.2c0-1.6-0.6-2.7-1.1-3.8c-1.1-1.1-2.7-1.6-4.8-1.6H143v10.7L143.6,41.3L143.6,41.3z"/>
		<path d="M177.9,46.1c0-5.4,0.6-9.6,2.1-12.9c1.6-3.2,3.2-6.4,5.9-8.6c2.1-2.1,5.4-3.8,8.1-4.8c3.2-1.1,5.9-1.6,9.1-1.6
			c3.8,0,6.9,0.6,10.2,1.6c3.2,1.1,5.9,2.7,8.1,4.8c2.1,2.1,3.8,5.4,5.4,8.6c1.1,3.8,1.6,8.1,1.6,12.9c0,4.8-0.6,9.6-2.1,12.9
			c-1.6,3.8-3.2,6.4-5.9,8.6c-2.7,2.1-4.8,3.8-8.1,4.8c-3.2,1.1-6.4,1.6-9.6,1.6c-3.2,0-5.9-0.6-9.1-1.6c-3.2-1.1-5.9-2.7-8.1-4.8
			c-2.1-2.1-4.3-5.4-5.9-8.6C177.9,55.8,177.9,50.9,177.9,46.1z M192.4,46.1c0,2.1,0,4.3,0.6,6.4s1.1,3.8,1.6,5.4s1.6,2.7,3.2,3.8
			c1.6,1.1,3.2,1.6,5.4,1.6s3.8-0.6,5.4-1.6c1.6-1.1,2.7-2.1,3.2-3.8c0.5-1.6,1.1-3.2,1.6-5.4c0.6-2.1,0.6-4.3,0.6-6.4
			s0-4.3-0.6-6.4c-0.6-2.1-1.1-3.8-1.6-5.4c-0.6-1.6-1.6-2.7-3.2-3.8c-1.6-1.1-3.2-1.6-5.4-1.6s-3.8,0.6-5.4,1.6
			c-1.6,1.1-2.7,2.1-3.2,3.8c-0.5,1.6-1.1,3.2-1.6,5.4C192.9,41.3,192.4,43.4,192.4,46.1z"/>
		<path d="M246.5,55.8c0,0.6,0,1.1,0.6,2.1c0,1.1,0.6,1.6,1.1,2.7c0.6,1.1,1.6,1.6,2.7,2.1c1.1,0.6,2.1,1.1,3.8,1.1
			c2.1,0,3.8-0.6,5.4-1.1c1.1-1.1,2.1-2.1,2.1-3.8c0-0.6,0-1.6-0.6-2.1c0-0.6-0.6-1.1-1.1-1.6c-0.6-0.6-1.1-1.1-2.1-1.1
			c-1.1-0.6-2.1-1.1-3.2-1.1l-8.6-4.3c-1.6-0.6-3.2-1.1-4.3-2.1c-1.6-1.1-2.7-2.1-3.8-3.2c-1.1-1.1-2.1-2.7-2.7-3.8
			c-0.6-1.6-1.1-3.2-1.1-4.8c0-2.7,0.6-5.4,1.6-7.5c1.1-2.1,2.7-3.8,4.8-5.4c2.1-1.6,4.3-2.1,6.9-3.2c2.7-0.6,5.4-1.1,8.6-1.1
			c3.8,0,6.4,0.6,9.1,1.6c2.1,1.1,3.8,2.1,5.4,3.2c0.6,1.6,1.6,3.2,2.1,4.3s1.1,2.1,1.1,3.2L262,34.4c0-0.6-0.6-1.1-0.6-1.6
			s-0.6-1.1-1.1-1.6c-0.6-0.6-1.1-1.1-2.1-1.6c-1.1-0.6-1.6-0.6-3.2-0.6c-2.1,0-4.3,0.6-5.4,1.6c-1.1,1.1-1.6,2.1-1.6,3.2
			c0,0.6,0,1.6,0.6,2.1c0,0.6,0.6,1.1,1.1,1.6c0.6-0.6,1.6,0,2.1,0c1.1,0.6,2.1,1.1,3.2,1.6l9.6,3.8c3.2,1.1,5.9,3.2,8.1,5.4
			c2.1,2.1,2.7,4.8,2.7,8.6c0,2.1-0.6,4.3-1.1,5.9c-0.6,2.1-2.1,3.8-3.8,5.4s-3.8,3.2-6.4,4.3c-2.7,1.1-6.4,1.6-10.2,1.6
			c-3.8,0-6.9-0.6-9.6-1.6s-4.3-2.1-5.9-3.8c-1.6-1.6-2.7-2.7-3.2-4.3c-0.6-1.6-1.1-2.7-1.6-3.8L246.5,55.8z"/>
		<path d="M283.5,19.3h13.9v19.8H314V19.3h14v53.1h-14v-22h-16.6v22.5h-13.9V19.3z"/>
		<path d="M338.7,19.3h13.9v33.2c0,1.6,0,2.7,0.6,3.8c0,1.1,0.6,2.1,1.1,3.2s1.6,1.6,2.7,2.1c1.1,0.6,2.1,0.6,3.8,0.6
			s2.7-0.6,3.8-1.1c1.1-0.5,2.1-1.1,2.7-2.1c0.6-1.1,1.1-2.1,1.6-3.2c0-1.1,0.6-2.7,0.6-3.8V19.4h13.4v33.2c0,6.4-1.6,11.8-5.4,15.6
			c-3.8,3.8-9.1,5.4-16.1,5.4c-3.2,0-5.9-0.6-8.6-1.1c-2.7-0.6-4.8-1.6-6.9-3.8c-2.1-1.6-3.8-3.8-4.8-6.4c-1.1-2.7-1.6-5.9-1.6-10.2
			V19.4L338.7,19.3L338.7,19.3z"/>
		<path d="M392.8,19.3h13.9v53.1h-13.9V19.3z"/>
		<path d="M427.6,55.8c0,0.6,0,1.1,0.6,2.1c0,1.1,0.6,1.6,1.1,2.7c0.6,1.1,1.6,1.6,2.7,2.1s2.1,1.1,3.8,1.1c2.1,0,3.8-0.6,5.4-1.1
			c1.1-1.1,2.1-2.1,2.1-3.8c0-0.6,0-1.6-0.6-2.1c0-0.6-0.6-1.1-1.1-1.6c-0.5-0.6-1.1-1.1-2.1-1.1c-1.1-0.6-2.1-1.1-3.2-1.1l-8.6-3.2
			c-1.6-0.6-3.2-1.1-4.3-2.1c-1.6-1.1-2.7-2.1-3.8-3.2c-1.1-1.1-2.1-2.7-2.7-3.8c-0.6-1.6-1.1-3.2-1.1-4.8c0-2.7,0.6-5.4,1.6-7.5
			c1.1-2.1,2.7-3.8,4.8-5.4c2.1-1.6,4.3-2.1,6.9-3.2c2.7-0.6,5.4-1.1,8.6-1.1c3.8,0,6.4,0.6,9.1,1.6c2.1,1.1,3.8,2.1,5.4,3.2
			c1.1,1.1,2.1,2.7,2.7,3.8s1.1,2.1,1.1,3.2l-12.3,4.3c0-0.6-0.6-1.1-0.6-1.6c0-0.6-0.6-1.1-1.1-1.6s-1.1-1.1-2.1-1.6
			c-1.1-0.6-1.6-0.6-3.2-0.6c-2.1,0-4.3,0.6-5.4,1.6c-1.1,1.1-1.6,2.1-1.6,3.2c0,0.6,0,1.6,0.6,2.1c0,0.6,0.6,1.1,1.1,1.6
			c0-1.1,0.6-0.6,1.6-0.6c1.1,0.6,2.1,1.1,3.2,1.6l9.6,3.8c3.2,1.1,5.9,3.2,8.1,5.4c2.1,2.1,2.7,4.8,2.7,8.6c0,2.1-0.6,4.3-1.1,5.9
			c-0.6,2.1-2.1,3.8-3.8,5.4s-3.8,3.2-6.4,4.3c-2.7,1.1-6.4,1.6-10.2,1.6c-3.8,0-6.9-0.6-9.6-1.6s-4.3-2.1-5.9-3.8
			c-1.6-1.6-2.7-2.7-3.2-4.3c-0.6-1.6-1.1-2.7-1.6-3.8L427.6,55.8z"/>
	</g>
</g>
</svg>
