<?xml version="1.0" encoding="utf-8"?>
<!-- Generator: Adobe Illustrator 19.2.1, SVG Export Plug-In . SVG Version: 6.00 Build 0)  -->
<svg version="1.1" id="Layer_1" xmlns="http://www.w3.org/2000/svg" xmlns:xlink="http://www.w3.org/1999/xlink" x="0px" y="0px"
	 viewBox="0 0 175.7 27.3" style="enable-background:new 0 0 175.7 27.3;" xml:space="preserve">
<style type="text/css">
	.st0{fill:#00539F;}
</style>
<g>
	<path class="st0" d="M19.4,22.6H6.2C2.8,22.6,0,19.9,0,15c0-4.9,2.8-7.6,6.2-7.6h5.5V0.1h7.7V22.6L19.4,22.6z M9.6,18.3
		c1.6,0,2.3-1.1,2.3-3.3s-0.7-3.3-2.3-3.3S7.3,12.9,7.3,15C7.4,17.2,8.1,18.3,9.6,18.3L9.6,18.3z M101.7,22.6V0h-8.3v22.6H101.7
		L101.7,22.6z M51.3,22.6V0h-8.4v22.6H51.3L51.3,22.6z M112.4,22.6V0H104v22.6H112.4L112.4,22.6z M127.4,22.6c3.4,0,6.2-2.7,6.2-7.6
		c0-4.9-2.8-7.6-6.2-7.6h-7c-3.4,0-6.2,2.7-6.2,7.6c0,4.9,2.8,7.6,6.2,7.6H127.4L127.4,22.6z M121.6,15c0-2.2,0.7-3.3,2.3-3.3
		s2.3,1.2,2.3,3.3c0,2.2-0.7,3.3-2.3,3.3C122.3,18.3,121.6,17.2,121.6,15L121.6,15z M175.7,0.1H168v7.3h-5.6c-3.4,0-6.2,2.7-6.2,7.6
		c0,4.9,2.8,7.6,6.2,7.6h13.2L175.7,0.1L175.7,0.1z M163.6,15c0-2.2,0.7-3.3,2.3-3.3c1.6,0,2.3,1.2,2.3,3.3c0,2.2-0.7,3.3-2.3,3.3
		C164.3,18.3,163.6,17.2,163.6,15L163.6,15z M84.1,7.4H70.9c-3.4,0-6.2,2.7-6.2,7.6c0,4.9,2.8,7.6,6.2,7.6h13.2V7.4L84.1,7.4z
		 M72.1,15c0-2.2,0.7-3.3,2.3-3.3c1.6,0,2.3,1.2,2.3,3.3c0,2.2-0.7,3.3-2.3,3.3C72.8,18.3,72.1,17.2,72.1,15L72.1,15z M136.8,27.3
		h8.4l11.1-19.9h-8.4l-3,5.4l-3.5-5.4h-8.5l7.6,13.1L136.8,27.3L136.8,27.3z M64,7.4h-2.4V3.1h-7.7v19.5h7.7V11.9H64V7.4L64,7.4z
		 M33.5,13.8c-0.2-1.6-0.8-2.5-2.2-2.5s-2.1,0.9-2.2,2.5H33.5L33.5,13.8z M40.7,17.4c-0.8,3.3-3.2,5.2-6,5.2h-7
		c-3.4,0-6.2-2.7-6.2-7.6c0-4.9,2.8-7.6,6.2-7.6h7c3.4,0,6.2,2.7,6.2,7.6c0,0.3,0,0.6,0,0.9h-12c0.1,1.8,0.8,2.8,2.3,2.8
		c1,0,1.6-0.4,2-1.3L40.7,17.4L40.7,17.4z"/>
</g>
</svg>
