<?xml version="1.0" encoding="utf-8"?>
<!-- Generator: Adobe Illustrator 19.2.1, SVG Export Plug-In . SVG Version: 6.00 Build 0)  -->
<svg version="1.1" id="Kader" xmlns="http://www.w3.org/2000/svg" xmlns:xlink="http://www.w3.org/1999/xlink" x="0px" y="0px"
	 viewBox="0 0 136.6 29.8" style="enable-background:new 0 0 136.6 29.8;" xml:space="preserve">
<style type="text/css">
	.st0{fill:none;}
	.st1{fill:#913493;}
</style>
<g>
	<rect x="-10.4" y="-9.7" class="st0" width="157.4" height="41.7"/>
</g>
<g>
	<path class="st1" d="M13.5,4.1c2.9,0,4.6,0.5,5.8,1.1l1.5-3.6c-1.7-0.7-3.9-1.5-8-1.5C4.9,0.1,0,3.9,0,11c0,7.3,4.2,11.3,12,11.3
		c4.1,0,6.9-0.8,8.6-1.6l-1.3-3.6c-1.2,0.5-3.4,1.1-6.3,1.1c-3.9,0-6.3-1.6-6.5-5h12.1V9.1h-12C6.8,5.9,9.5,4.1,13.5,4.1z"/>
	<path class="st1" d="M43.3,25.8c-3.6,0-6-1.2-6.4-4c5.6-1,8.5-4.7,8.5-10.6c0-6.6-3.9-11.1-11.3-11.1S22.8,4.5,22.8,11.2
		c0,5.6,2.8,9.6,8.1,10.6c0.9,5.2,4.8,8,11.7,8c4.1,0,6.8-0.8,8.5-1.4L50,24.8C48.9,25.2,46.2,25.8,43.3,25.8z M34.1,18.2
		c-3.1,0-4.8-2.6-4.8-7.1c0-4.6,1.6-7.3,4.8-7.3c3.2,0,4.8,2.7,4.8,7.3C38.9,15.6,37.3,18.2,34.1,18.2z"/>
	<path class="st1" d="M62.6,17.6c-0.7,0.3-2,0.6-3.3,0.6c-2.7,0-4-1.5-4-3.9V0.7h-6.4v13.6c0,5,3.3,7.9,10.1,7.9
		c4.5,0,8-0.9,10.1-1.8V0.7h-6.5V17.6z"/>
	<path class="st1" d="M86,4.1c2.9,0,4.6,0.5,5.8,1.1l1.5-3.6c-1.7-0.7-3.9-1.5-8-1.5c-7.9,0-12.8,3.8-12.8,10.9
		c0,7.3,4.2,11.3,12,11.3c4.1,0,6.9-0.8,8.6-1.6l-1.3-3.6c-1.2,0.5-3.4,1.1-6.3,1.1c-3.9,0-6.3-1.6-6.5-5h12.1V9.1H79
		C79.3,5.9,82.1,4.1,86,4.1z"/>
	<path class="st1" d="M116.9,21.6V7.3c0-4.6-3-7.2-10.3-7.2c-3.9,0-7.5,0.8-9.9,1.7v19.8h6.4V4.5c0.7-0.3,2-0.5,3.5-0.5
		c2.9,0,3.8,1.4,3.8,3.5v14L116.9,21.6L116.9,21.6z"/>
	<g>
		<path class="st1" d="M136.6,15.6c0-2.6-1.4-4.2-4-5.6c-3.3-1.8-6-2.5-6-4c0-1.4,1.4-2,3.8-2c1.8,0,3.7,0.5,4.5,1l1.5-3.6
			c-1.3-0.7-3.7-1.4-6.9-1.4c-5.6,0-9,2.6-9,6.2c0,2.6,1.4,4.3,4.1,5.8c3,1.6,5.7,2.4,5.7,4c0,1.4-1.4,1.9-3.7,1.9
			c-2,0-3.8-0.6-4.8-1l-1.5,3.8c1.3,0.8,3.8,1.4,6.9,1.4C132.9,22.2,136.6,19.8,136.6,15.6z"/>
	</g>
</g>
</svg>
