<?xml version="1.0" encoding="utf-8"?>
<!-- Generator: Adobe Illustrator 19.2.1, SVG Export Plug-In . SVG Version: 6.00 Build 0)  -->
<svg version="1.1" id="Capa_1" xmlns="http://www.w3.org/2000/svg" xmlns:xlink="http://www.w3.org/1999/xlink" x="0px" y="0px"
	 viewBox="0 0 512 512" style="enable-background:new 0 0 512 512;" xml:space="preserve">
<style type="text/css">
	.st0{fill:#FF0066;}
</style>
<g>
	<path class="st0" d="M471.1,235.4c-4.5,0-8.2-3.7-8.2-8.2c0-52.8-20-92.6-59.3-118.4C368.4,85.7,318.7,74,256,74
		s-112.4,11.7-147.7,34.8C69,134.5,49,174.4,49,227.2c0,4.5-3.7,8.2-8.2,8.2s-8.2-3.7-8.2-8.2C32.7,117.9,112,57.7,256,57.7
		s223.3,60.2,223.3,169.5C479.3,231.7,475.7,235.4,471.1,235.4z"/>
	<path class="st0" d="M117.7,146.7c-4.5,0-8.2,3.7-8.2,8.2c0,4.5,3.7,8.2,8.2,8.2c4.5,0,8.2-3.7,8.2-8.2
		C125.8,150.4,122.2,146.7,117.7,146.7z"/>
	<path class="st0" d="M386.2,154.9c0,4.5,3.7,8.2,8.2,8.2s8.2-3.7,8.2-8.2c0-4.5-3.7-8.2-8.2-8.2S386.2,150.4,386.2,154.9z"/>
	<path class="st0" d="M361.7,388.6c4.5,0,8.2,3.7,8.2,8.2s-3.7,8.2-8.2,8.2s-8.2-3.7-8.2-8.2S357.2,388.6,361.7,388.6z"/>
	<path class="st0" d="M150.3,169.6c-4.5,0-8.2,3.7-8.2,8.2s3.7,8.2,8.2,8.2s8.2-3.7,8.2-8.2S154.8,169.6,150.3,169.6z"/>
	<path class="st0" d="M405.8,454.3H106.2c-40.5,0-73.5-33-73.5-73.5c0-4.5,3.7-8.2,8.2-8.2s8.2,3.7,8.2,8.2
		c0,31.5,25.7,57.2,57.2,57.2h299.6c31.5,0,57.2-25.7,57.2-57.2c0-4.5,3.7-8.2,8.2-8.2c4.5,0,8.2,3.7,8.2,8.2
		C479.3,421.4,446.3,454.3,405.8,454.3z"/>
	<path class="st0" d="M471.1,317.1H40.9C18.3,317.1,0,298.7,0,276.2v-16.3C0,237.3,18.3,219,40.9,219h430.3
		c22.5,0,40.9,18.3,40.9,40.9v16.3C512,298.7,493.7,317.1,471.1,317.1z M40.9,235.4c-13.5,0-24.5,11-24.5,24.5v16.3
		c0,13.5,11,24.5,24.5,24.5h430.3c13.5,0,24.5-11,24.5-24.5v-16.3c0-13.5-11-24.5-24.5-24.5L40.9,235.4L40.9,235.4z"/>
	<path class="st0" d="M421.2,371.5c-22.7,0-34.6-6.3-45.1-11.8c-10.1-5.3-18.9-10-37.5-10c-18.6,0-27.4,4.6-37.5,10
		c-10.5,5.5-22.4,11.8-45.1,11.8c-22.7,0-34.6-6.3-45.1-11.8c-10.1-5.3-18.9-10-37.5-10s-27.4,4.6-37.5,10
		c-10.5,5.5-22.4,11.8-45.1,11.8c-22.7,0-34.6-6.3-45.1-11.8c-10.1-5.3-18.9-10-37.5-10c-4.5,0-8.2-3.7-8.2-8.2
		c0-4.5,3.7-8.2,8.2-8.2c22.7,0,34.6,6.3,45.1,11.8c10.1,5.3,18.9,10,37.5,10s27.4-4.6,37.5-10c10.5-5.5,22.4-11.8,45.1-11.8
		c22.7,0,34.6,6.3,45.1,11.8c10.1,5.3,18.9,10,37.5,10s27.4-4.6,37.5-10c10.5-5.5,22.4-11.8,45.1-11.8c22.7,0,34.6,6.3,45.1,11.8
		c10.1,5.3,18.9,10,37.5,10s27.4-4.6,37.5-10c10.5-5.5,22.4-11.8,45.1-11.8c4.5,0,8.2,3.7,8.2,8.2c0,4.5-3.7,8.2-8.2,8.2
		c-18.6,0-27.4,4.6-37.5,10C455.8,365.2,443.9,371.5,421.2,371.5z"/>
</g>
</svg>
