<?xml version="1.0" encoding="UTF-8" standalone="no"?>
<svg width="30px" height="30px" viewBox="0 0 30 30" version="1.1" xmlns="http://www.w3.org/2000/svg" xmlns:xlink="http://www.w3.org/1999/xlink">
    <!-- Generator: Sketch 39.1 (31720) - http://www.bohemiancoding.com/sketch -->
    <title>SM icons_Linkedin</title>
    <desc>Created with Sketch.</desc>
    <defs></defs>
    <g id="Symbols" stroke="none" stroke-width="1" fill="none" fill-rule="evenodd">
        <g id="D_SM--SHARE-IT" fill="#0077B5">
            <g id="Mb_SM--SHARE-IT">
                <g id="SM-icons_Linkedin">
                    <path d="M28.5,1.5 L28.5,28.5 L1.5,28.5 L1.5,1.5 L28.5,1.5 L28.5,1.5 Z M30,0 L0,0 L0,30 L30,30 L30,0 L30,0 L30,0 Z" id="Shape"></path>
                    <path d="M23.4,16.8 L23.4,23.025 L19.8,23.025 L19.8,17.175 C19.8,15.75 19.275,14.7 17.925,14.7 C16.875,14.7 16.275,15.375 16.05,16.05 C15.9,16.275 15.9,16.575 15.9,16.95 L15.9,23.025 L12.3,23.025 C12.3,23.025 12.375,13.2 12.3,12.15 L15.9,12.15 L15.9,13.725 C15.9,13.725 15.9,13.725 15.9,13.8 L15.9,13.8 L15.9,13.725 C16.35,12.975 17.25,11.925 19.125,11.925 C21.675,11.925 23.4,13.5 23.4,16.8 L23.4,16.8 Z M8.625,6.975 C7.35,6.975 6.6,7.8 6.6,8.85 C6.6,9.9 7.35,10.725 8.55,10.725 L8.55,10.725 C9.825,10.725 10.575,9.9 10.575,8.85 C10.575,7.725 9.825,6.975 8.625,6.975 L8.625,6.975 Z M6.75,23.025 L10.35,23.025 L10.35,12.15 L6.75,12.15 L6.75,23.025 L6.75,23.025 Z" id="LinkedIn"></path>
                </g>
            </g>
        </g>
    </g>
</svg>