<?xml version="1.0" encoding="utf-8"?>
<!-- Generator: Adobe Illustrator 19.2.1, SVG Export Plug-In . SVG Version: 6.00 Build 0)  -->
<svg version="1.1" id="Layer_1" xmlns="http://www.w3.org/2000/svg" xmlns:xlink="http://www.w3.org/1999/xlink" x="0px" y="0px"
	 viewBox="0 0 40 40" style="enable-background:new 0 0 40 40;" xml:space="preserve">
<style type="text/css">
	.st0{fill:#FFFFFF;}
</style>
<g id="XMLID_10_">
	<path class="st0" d="M38,2v36H2V2H38 M40,0H0v40h40V0L40,0z"/>
</g>
<g id="XMLID_2_">
	<path id="XMLID_7_" class="st0" d="M25.6,8.8h-2.9c-3.3,0-5.4,2.2-5.4,5.5v2.6h-3c-0.2,0-0.5,0.2-0.5,0.5V21c0,0.2,0.2,0.5,0.5,0.5
		h2.9v9.3c0,0.2,0.2,0.5,0.5,0.5h3.8c0.2,0,0.5-0.2,0.5-0.5v-9.4h3.4c0.2,0,0.5-0.2,0.5-0.5v-3.7c0-0.2-0.1-0.2-0.2-0.3
		c-0.1-0.1-0.2-0.2-0.3-0.2h-3.4v-2.2c0-1,0.2-1.6,1.6-1.6h1.9c0.2,0,0.5-0.2,0.5-0.5V9.3C26.1,9,25.9,8.8,25.6,8.8z"/>
</g>
</svg>
