<?xml version="1.0" encoding="UTF-8" standalone="no"?>
<svg width="30px" height="30px" viewBox="0 0 30 30" version="1.1" xmlns="http://www.w3.org/2000/svg" xmlns:xlink="http://www.w3.org/1999/xlink">
    <!-- Generator: Sketch 39.1 (31720) - http://www.bohemiancoding.com/sketch -->
    <title>SM icons_Fb</title>
    <desc>Created with Sketch.</desc>
    <defs></defs>
    <g id="Symbols" stroke="none" stroke-width="1" fill="none" fill-rule="evenodd">
        <g id="D_SM--SHARE-IT" transform="translate(-100.000000, 0.000000)" fill="#3B5998">
            <g id="Mb_SM--SHARE-IT">
                <g id="SM-icons_Fb" transform="translate(100.000000, 0.000000)">
                    <path d="M19.2,6.6 L17.025,6.6 C14.55,6.6 12.975,8.25 12.975,10.725 L12.975,12.675 L10.725,12.675 C10.575,12.675 10.35,12.825 10.35,13.05 L10.35,15.75 C10.35,15.9 10.5,16.125 10.725,16.125 L12.9,16.125 L12.9,23.1 C12.9,23.25 13.05,23.475 13.275,23.475 L16.125,23.475 C16.275,23.475 16.5,23.325 16.5,23.1 L16.5,16.05 L19.05,16.05 C19.2,16.05 19.425,15.9 19.425,15.675 L19.425,12.9 C19.425,12.75 19.35,12.75 19.275,12.675 C19.2,12.6 19.125,12.525 19.05,12.525 L16.5,12.525 L16.5,10.875 C16.5,10.125 16.65,9.675 17.7,9.675 L19.125,9.675 C19.275,9.675 19.5,9.525 19.5,9.3 L19.5,6.975 C19.575,6.75 19.425,6.6 19.2,6.6 L19.2,6.6 Z" id="XMLID_7_"></path>
                    <path d="M28.5,1.5 L28.5,28.5 L1.5,28.5 L1.5,1.5 L28.5,1.5 L28.5,1.5 Z M30,0 L0,0 L0,30 L30,30 L30,0 L30,0 L30,0 Z" id="Shape"></path>
                </g>
            </g>
        </g>
    </g>
</svg>