<?xml version="1.0" encoding="utf-8"?>
<!-- Generator: Adobe Illustrator 19.2.1, SVG Export Plug-In . SVG Version: 6.00 Build 0)  -->
<svg version="1.1" id="Layer_1" xmlns="http://www.w3.org/2000/svg" xmlns:xlink="http://www.w3.org/1999/xlink" x="0px" y="0px"
	 viewBox="0 0 40 40" style="enable-background:new 0 0 40 40;" xml:space="preserve">
<style type="text/css">
	.st0{fill:#1DA1F2;}
</style>
<g id="XMLID_14_">
	<path class="st0" d="M38,2v36H2V2H38 M40,0H0v40h40V0L40,0z"/>
</g>
<g id="XMLID_82_">
	<g id="XMLID_83_">
		<path id="XMLID_80_" class="st0" d="M31.1,13.1c-0.8,0.4-1.7,0.6-2.6,0.7c1-0.6,1.7-1.4,2-2.5c-0.9,0.5-1.8,0.9-2.9,1.1
			c-0.8-0.9-2-1.4-3.3-1.4c-2.5,0-4.6,2-4.6,4.6c0,0.3,0.1,0.7,0.1,1c-3.8-0.2-7.1-2-9.4-4.7c-0.4,0.6-0.6,1.4-0.6,2.3
			c0,1.6,0.8,3,2,3.8c-0.7,0-1.4-0.2-2.1-0.6v0.1c0,2.2,1.6,4,3.7,4.5c-0.4,0.1-0.8,0.2-1.2,0.2c-0.3,0-0.6,0-0.9-0.1
			c0.6,1.8,2.2,3.1,4.2,3.1c-1.5,1.2-3.5,1.9-5.6,1.9c-0.4,0-0.7,0-1.1-0.1c2,1.3,4.4,2.1,7,2.1c8.3,0,12.9-6.9,12.9-12.9v-0.6
			C29.7,14.9,30.5,14.1,31.1,13.1z"/>
	</g>
</g>
</svg>
