<?xml version="1.0" encoding="utf-8"?>
<!-- Generator: Adobe Illustrator 19.2.1, SVG Export Plug-In . SVG Version: 6.00 Build 0)  -->
<svg version="1.1" id="Layer_1" xmlns="http://www.w3.org/2000/svg" xmlns:xlink="http://www.w3.org/1999/xlink" x="0px" y="0px"
	 viewBox="0 0 40 40" style="enable-background:new 0 0 40 40;" xml:space="preserve">
<style type="text/css">
	.st0{fill:#FFFFFF;}
</style>
<g id="XMLID_21_">
	<path class="st0" d="M38,2v36H2V2H38 M40,0H0v40h40V0L40,0z"/>
</g>
<g>
	<path id="LinkedIn" class="st0" d="M31.2,22.4v8.3h-4.8v-7.8c0-1.9-0.7-3.3-2.5-3.3c-1.4,0-2.2,0.9-2.5,1.8
		c-0.2,0.3-0.2,0.7-0.2,1.2v8.1h-4.8c0,0,0.1-13.1,0-14.5h4.8v2.1c0,0,0,0,0,0.1l0,0v-0.1c0.6-1,1.8-2.4,4.3-2.4
		C28.9,15.9,31.2,18,31.2,22.4z M11.5,9.3c-1.7,0-2.7,1.1-2.7,2.5s1,2.5,2.6,2.5l0,0c1.7,0,2.7-1.1,2.7-2.5
		C14.1,10.3,13.1,9.3,11.5,9.3z M9,30.7h4.8V16.2H9V30.7z"/>
</g>
</svg>
