<?xml version="1.0" encoding="utf-8"?>
<!-- Generator: Adobe Illustrator 19.2.1, SVG Export Plug-In . SVG Version: 6.00 Build 0)  -->
<svg version="1.1" id="Layer_1" xmlns="http://www.w3.org/2000/svg" xmlns:xlink="http://www.w3.org/1999/xlink" x="0px" y="0px"
	 viewBox="0 0 40 40" style="enable-background:new 0 0 40 40;" xml:space="preserve">
<style type="text/css">
	.st0{fill:#FFFFFF;}
</style>
<g id="XMLID_8_">
	<path class="st0" d="M38,2v36H2V2H38 M40,0H0v40h40V0L40,0z"/>
</g>
<g>
	<g>
		<path class="st0" d="M20,24l-3.4-3l-9.9,8.4c0.4,0.3,0.8,0.5,1.4,0.5h23.8c0.5,0,1-0.2,1.4-0.5L23.4,21L20,24z"/>
		<path class="st0" d="M33.3,10.6c-0.4-0.3-0.8-0.5-1.4-0.5H8.1c-0.5,0-1,0.2-1.4,0.5L20,22L33.3,10.6z"/>
		<polygon class="st0" points="6.1,11.8 6.1,28.3 15.7,20.2 		"/>
		<polygon class="st0" points="24.3,20.2 33.9,28.3 33.9,11.8 		"/>
	</g>
</g>
</svg>
