<?xml version="1.0" encoding="utf-8"?>
<!-- Generator: Adobe Illustrator 19.2.1, SVG Export Plug-In . SVG Version: 6.00 Build 0)  -->
<svg version="1.1" id="Layer_1" xmlns="http://www.w3.org/2000/svg" xmlns:xlink="http://www.w3.org/1999/xlink" x="0px" y="0px"
	 viewBox="0 0 40 40" style="enable-background:new 0 0 40 40;" xml:space="preserve">
<style type="text/css">
	.st0{fill:#FFFFFF;}
	.st1{fill:#FEFDFE;}
</style>
<g id="XMLID_16_">
	<path class="st0" d="M38.1,2v36h-36V2H38.1 M40.1,0h-40v40h40V0L40.1,0z"/>
</g>
<g>
	<path class="st1" d="M30.7,16.4c0-1-0.1-2.1-0.4-3.1c-0.4-1.1-1-2-1.9-2.7c-0.7-0.6-1.5-0.9-2.4-1c-0.8-0.2-1.6-0.2-2.4-0.2
		c-2-0.1-4,0-6,0c-1.1,0-2.2,0-3.3,0.2c-1,0.2-1.9,0.6-2.7,1.2c-1.4,1.1-2,2.6-2.2,4.3c-0.1,0.9-0.1,1.7-0.1,2.6c0,1.2,0,2.3,0,3.5
		c0,1.2,0,2.5,0.1,3.7c0.1,0.8,0.2,1.6,0.5,2.3c0.2,0.6,0.6,1.3,1.1,1.8c0.4,0.4,0.8,0.8,1.3,1c0.6,0.4,1.4,0.6,2.2,0.7
		c0.3,0.1,0.6,0.1,1,0.1s0.6,0,0.9,0c2.8,0,5.7,0.1,8.5-0.1c0.6,0,1.4-0.2,2-0.3c0.8-0.2,1.4-0.6,2.1-1.2c0.9-0.8,1.4-1.8,1.7-3
		c0.2-0.8,0.2-1.7,0.2-2.5C30.8,21.2,30.8,18.8,30.7,16.4z M28.8,23.7c0,0.7,0,1.4-0.2,2.1c-0.2,0.6-0.3,1-0.7,1.5
		c-0.6,0.7-1.3,1.1-2.2,1.3c-0.5,0.1-1,0.2-1.5,0.2c-2.3,0.1-4.6,0.1-6.9,0c-0.7,0-1.5,0-2.2-0.1c-1.1-0.2-2.1-0.5-2.8-1.4
		c-0.5-0.6-0.7-1.2-0.8-1.9c-0.2-1-0.2-1.9-0.2-3c0-0.6,0-1.3,0-2c0-1.8,0-3.4,0.1-5.2c0-0.6,0.2-1,0.3-1.6c0.4-1,1.1-1.8,2.2-2.2
		c0.6-0.2,1.3-0.3,1.9-0.3c2.1,0.1,4.2,0.1,6.2,0.1c0.7,0,1.4,0,2.1,0.1c0.6,0,1.3,0.1,1.9,0.2c1.4,0.5,2.3,1.5,2.6,3
		c0.2,0.6,0.2,1.2,0.2,1.8C28.9,18.8,28.9,21.2,28.8,23.7z"/>
	<path class="st1" d="M19.1,14.5c-2.1,0.4-3.4,1.6-4.2,3.5c-0.2,0.4-0.2,0.7-0.3,1.1c-0.1,0.2,0,0.6,0,0.8c0,0.6,0.1,1.2,0.3,1.8
		c0.2,0.7,0.6,1.3,1.1,1.8c0.6,0.6,1.1,1,1.8,1.4c1.1,0.5,2.2,0.6,3.4,0.4c0.7-0.2,1.4-0.4,2-0.9c0.6-0.4,1.1-1,1.5-1.5
		c0.5-0.7,0.7-1.5,0.9-2.4c0.1-0.8,0-1.6-0.2-2.3C24.5,15.7,21.9,14.1,19.1,14.5z M23.1,21.9c-0.2,0.2-0.2,0.4-0.5,0.6
		c-0.2,0.2-0.4,0.4-0.6,0.6c-1.6,1-3.7,0.6-4.8-0.9c-0.4-0.6-0.6-1.2-0.7-1.9c-0.1-1.7,1-3.2,2.6-3.6c2.1-0.6,4.2,0.8,4.5,3
		C23.7,20.3,23.6,21.2,23.1,21.9z"/>
	<path class="st1" d="M25.8,13c-0.7,0-1.3,0.6-1.3,1.3c0,0.7,0.6,1.3,1.3,1.3s1.3-0.6,1.3-1.3C27.1,13.6,26.5,13,25.8,13z"/>
</g>
</svg>
