<?xml version="1.0" encoding="utf-8"?>
<!-- Generator: Adobe Illustrator 18.1.1, SVG Export Plug-In . SVG Version: 6.00 Build 0)  -->
<svg version="1.1" id="Layer_1" xmlns="http://www.w3.org/2000/svg" xmlns:xlink="http://www.w3.org/1999/xlink" x="0px" y="0px"
	 viewBox="0 0 595.3 173" enable-background="new 0 0 595.3 173" xml:space="preserve">
<g>
	<rect x="387.5" y="34.4" fill="#F7931E" width="0.9" height="109.6"/>
</g>
<g>
	<path fill="#EC008C" d="M326.5,115.2c0,0-10.1-0.6-17.7-1.7c-7.6-1.1-16.4-3-16.4-3l-4,29c0,0,8.8,2,16.4,3
		c7.6,1.1,17.7,1.7,17.7,1.7L326.5,115.2L326.5,115.2L326.5,115.2z"/>
</g>
<g>
	<path fill="#F7931E" d="M341.5,84.2l-11,2l-4,29l26.4,12.8c0,0,4.6-7.8,8-14.7c3.4-6.9,7.1-16.3,7.1-16.3L341.5,84.2z"/>
</g>
<g>
	<path fill="#EC008C" d="M350.4,51c-5.5-5.3-13.3-11.8-13.3-11.8l-20.3,21.1l13.8,25.8l0,0l11-2l20.3-21.1
		C361.9,63.1,355.9,56.3,350.4,51"/>
</g>
<g>
	<path fill="#F7931E" d="M296.4,81.4l20.3-21.1l-13.8-25.9c0,0-8.3,3.6-15.1,7.2c-6.8,3.6-15.3,9-15.3,9l13.8,25.9L296.4,81.4
		L296.4,81.4z"/>
</g>
<g>
	<path fill="#ED1C24" d="M263.5,115.5c0,0-2.5-9.8-3.8-17.4c-1.3-7.6-2.2-16.6-2.2-16.6l28.9-5.1l26.3,12.8l0,0l-20.3,21.1
		L263.5,115.5z"/>
</g>
<g>
	<path fill="#ED1C24" d="M41.1,59.6c-0.1-0.2-0.1-0.5-0.1-0.7c0-0.5,0.2-0.9,0.5-1.3c0.3-0.4,0.8-0.6,1.3-0.6c0.4,0,0.7,0.1,1,0.3
		c0.3,0.2,0.5,0.5,0.7,0.8l7.2,17.1l7.2-17.1c0.3-0.7,0.9-1.1,1.7-1.1c0.5,0,1,0.2,1.3,0.6c0.3,0.4,0.5,0.8,0.5,1.3
		c0,0.3,0,0.5-0.1,0.7l-8.8,21c-0.4,0.7-0.9,1.1-1.7,1.1c-0.8,0-1.4-0.4-1.7-1.1L41.1,59.6z"/>
</g>
<g>
	<path fill="#ED1C24" d="M64.5,65.8c0-1.2,0.2-2.3,0.7-3.4c0.5-1.1,1.1-2,1.9-2.8c0.8-0.8,1.7-1.4,2.8-1.9c1-0.5,2.2-0.7,3.4-0.7
		c1.2,0,2.3,0.2,3.4,0.7c1.1,0.5,2,1.1,2.8,1.9c0.8,0.8,1.4,1.7,1.9,2.8c0.5,1.1,0.7,2.2,0.7,3.4v3.7c0,0.5-0.2,1-0.5,1.3
		c-0.4,0.4-0.8,0.5-1.3,0.5h-12V73c0,0.7,0.1,1.3,0.4,1.9c0.3,0.6,0.6,1.2,1.1,1.6c0.5,0.5,1,0.8,1.6,1.1c0.6,0.3,1.3,0.4,2,0.4
		c1,0,2-0.3,2.8-0.8c0.8-0.5,1.4-1.3,1.9-2.2l0-0.1c0.1-0.4,0.3-0.6,0.7-0.8c0.3-0.2,0.7-0.3,1-0.3c0.5,0,1,0.2,1.3,0.6
		c0.4,0.4,0.5,0.8,0.5,1.3c0,0.2-0.1,0.5-0.2,0.9c-0.7,1.6-1.7,2.8-3.2,3.8c-1.4,1-3,1.5-4.8,1.5c-1.2,0-2.3-0.2-3.4-0.7
		c-1.1-0.5-2-1.1-2.8-1.9c-0.8-0.8-1.4-1.7-1.9-2.8c-0.5-1.1-0.7-2.2-0.7-3.4V65.8z M68.2,67.6h10.2v-1.9c0-0.7-0.1-1.3-0.4-1.9
		c-0.3-0.6-0.6-1.2-1.1-1.6c-0.5-0.5-1-0.8-1.6-1.1c-0.6-0.3-1.3-0.4-2-0.4c-0.7,0-1.4,0.1-2,0.4c-0.6,0.3-1.2,0.6-1.6,1.1
		c-0.5,0.5-0.8,1-1.1,1.6c-0.3,0.6-0.4,1.3-0.4,1.9V67.6z"/>
</g>
<g>
	<path fill="#ED1C24" d="M88.5,59.1c0.8-0.7,1.7-1.3,2.6-1.6c1-0.3,2-0.5,3.3-0.5c1.1,0.1,2,0.2,2.7,0.4c0.7,0.2,1.3,0.5,1.8,0.8
		c0.5,0.4,0.8,0.9,0.8,1.6c0,0.5-0.2,1-0.5,1.3c-0.4,0.3-0.8,0.5-1.3,0.5c-0.4,0-0.8-0.1-1.1-0.3c-0.8-0.5-1.7-0.7-2.6-0.7
		c-1.4,0-2.6,0.5-3.6,1.4c-1,1-1.5,2.1-1.5,3.5v14.2c0,0.5-0.2,1-0.5,1.3c-0.4,0.4-0.8,0.5-1.3,0.5c-0.5,0-0.9-0.2-1.3-0.5
		c-0.4-0.4-0.6-0.8-0.6-1.3V67.8c0-1.4,0.1-2.5,0.3-3.5c0.2-1,0.4-1.8,0.7-2.5c0.3-0.7,0.6-1.2,1-1.7C87.8,59.8,88.1,59.4,88.5,59.1
		"/>
</g>
<g>
	<path fill="#ED1C24" d="M101.3,65.8c0-1.2,0.2-2.3,0.7-3.4c0.5-1.1,1.1-2,1.9-2.8c0.8-0.8,1.7-1.4,2.8-1.9c1.1-0.5,2.2-0.7,3.4-0.7
		c1.2,0,2.3,0.2,3.4,0.7c1.1,0.5,2,1.1,2.8,1.9c0.8,0.8,1.4,1.7,1.9,2.8c0.5,1.1,0.7,2.2,0.7,3.4v3.7c0,0.5-0.2,1-0.5,1.3
		c-0.4,0.4-0.8,0.5-1.3,0.5h-12V73c0,0.7,0.1,1.3,0.4,1.9c0.3,0.6,0.6,1.2,1.1,1.6c0.5,0.5,1,0.8,1.6,1.1c0.6,0.3,1.3,0.4,2,0.4
		c1,0,2-0.3,2.8-0.8c0.8-0.5,1.4-1.3,1.9-2.2l0-0.1c0.1-0.4,0.3-0.6,0.7-0.8c0.3-0.2,0.7-0.3,1-0.3c0.5,0,1,0.2,1.3,0.6
		c0.4,0.4,0.5,0.8,0.5,1.3c0,0.2-0.1,0.5-0.2,0.9c-0.7,1.6-1.7,2.8-3.2,3.8c-1.4,1-3,1.5-4.8,1.5c-1.2,0-2.3-0.2-3.4-0.7
		c-1.1-0.5-2-1.1-2.8-1.9c-0.8-0.8-1.4-1.7-1.9-2.8c-0.5-1.1-0.7-2.2-0.7-3.4V65.8z M104.9,67.6h10.2v-1.9c0-0.7-0.1-1.3-0.4-1.9
		c-0.3-0.6-0.6-1.2-1.1-1.6c-0.5-0.5-1-0.8-1.6-1.1c-0.6-0.3-1.3-0.4-2-0.4c-0.7,0-1.4,0.1-2,0.4c-0.6,0.3-1.2,0.6-1.6,1.1
		c-0.5,0.5-0.8,1-1.1,1.6c-0.3,0.6-0.4,1.3-0.4,1.9V67.6z"/>
</g>
<g>
	<path fill="#ED1C24" d="M122.7,65.8c0-1.2,0.2-2.3,0.7-3.4c0.5-1.1,1.1-2,1.9-2.8c0.8-0.8,1.7-1.4,2.8-1.9c1-0.5,2.2-0.7,3.4-0.7
		c1.2,0,2.3,0.2,3.4,0.7c1.1,0.5,2,1.1,2.8,1.9c0.8,0.8,1.4,1.7,1.9,2.8c0.5,1.1,0.7,2.2,0.7,3.4v14.1c0,0.5-0.2,1-0.6,1.3
		c-0.4,0.4-0.8,0.5-1.3,0.5c-0.5,0-1-0.2-1.3-0.5c-0.4-0.4-0.5-0.8-0.5-1.3V65.8c0-0.7-0.1-1.3-0.4-1.9c-0.3-0.6-0.6-1.2-1.1-1.6
		c-0.5-0.5-1-0.8-1.6-1.1c-0.6-0.3-1.3-0.4-2-0.4c-0.7,0-1.4,0.1-2,0.4c-0.6,0.3-1.2,0.6-1.6,1.1c-0.5,0.5-0.8,1-1.1,1.6
		c-0.3,0.6-0.4,1.3-0.4,1.9v14.1c0,0.5-0.2,1-0.6,1.3c-0.4,0.4-0.8,0.5-1.3,0.5c-0.5,0-1-0.2-1.3-0.5c-0.4-0.4-0.5-0.8-0.5-1.3V65.8
		z"/>
</g>
<g>
	<path fill="#ED1C24" d="M144.5,51.2c0-0.5,0.2-1,0.5-1.3c0.4-0.4,0.8-0.5,1.3-0.5c0.5,0,0.9,0.2,1.3,0.5c0.4,0.4,0.6,0.8,0.6,1.3
		v1.4c0,0.5-0.2,1-0.5,1.3c-0.4,0.4-0.8,0.5-1.3,0.5c-0.5,0-0.9-0.2-1.3-0.5c-0.4-0.4-0.6-0.8-0.6-1.3V51.2z M144.5,58.9
		c0-0.5,0.2-1,0.5-1.3c0.4-0.4,0.8-0.5,1.3-0.5c0.5,0,0.9,0.2,1.3,0.5c0.4,0.4,0.6,0.8,0.6,1.3v21c0,0.5-0.2,1-0.5,1.3
		c-0.4,0.4-0.8,0.5-1.3,0.5c-0.5,0-0.9-0.2-1.3-0.5c-0.4-0.4-0.6-0.8-0.6-1.3V58.9z"/>
</g>
<g>
	<path fill="#ED1C24" d="M152.2,65.8c0-1.2,0.2-2.3,0.7-3.4c0.5-1.1,1.1-2,1.9-2.8c0.8-0.8,1.7-1.4,2.8-1.9c1-0.5,2.2-0.7,3.4-0.7
		c1.2,0,2.3,0.2,3.4,0.7c1.1,0.5,2,1.1,2.8,1.9c0.8,0.8,1.4,1.7,1.9,2.8c0.5,1.1,0.7,2.2,0.7,3.4v15.6c0,1.2-0.2,2.3-0.7,3.4
		c-0.5,1.1-1.1,2-1.9,2.8c-0.8,0.8-1.7,1.4-2.8,1.9c-1.1,0.5-2.2,0.7-3.4,0.7c-0.5,0-1-0.2-1.3-0.5c-0.4-0.4-0.5-0.8-0.5-1.3
		c0-0.5,0.2-1,0.5-1.3c0.4-0.4,0.8-0.5,1.3-0.5c0.7,0,1.3-0.1,2-0.4c0.6-0.3,1.2-0.6,1.6-1.1c0.5-0.5,0.8-1,1.1-1.6
		c0.3-0.6,0.4-1.3,0.4-1.9v-1.2c-1.5,1.1-3.2,1.6-5.1,1.6c-1.2,0-2.3-0.2-3.4-0.7c-1.1-0.5-2-1.1-2.8-1.9c-0.8-0.8-1.4-1.7-1.9-2.8
		c-0.5-1.1-0.7-2.2-0.7-3.4V65.8z M155.9,73c0,0.7,0.1,1.3,0.4,1.9c0.3,0.6,0.6,1.2,1.1,1.6c0.5,0.5,1,0.8,1.6,1.1
		c0.6,0.3,1.3,0.4,2,0.4s1.3-0.1,1.9-0.4c0.6-0.2,1.1-0.6,1.6-1c0.5-0.4,0.8-0.9,1.1-1.5c0.3-0.6,0.4-1.2,0.5-1.9v-7.5
		c0-0.7-0.1-1.3-0.4-1.9c-0.3-0.6-0.6-1.2-1.1-1.6c-0.5-0.5-1-0.8-1.6-1.1c-0.6-0.3-1.3-0.4-2-0.4c-0.7,0-1.4,0.1-2,0.4
		c-0.6,0.3-1.2,0.6-1.6,1.1c-0.5,0.5-0.8,1-1.1,1.6c-0.3,0.6-0.4,1.3-0.4,1.9V73z"/>
</g>
<g>
	<path fill="#ED1C24" d="M174.1,51.2c0-0.5,0.2-1,0.5-1.3c0.4-0.4,0.8-0.5,1.3-0.5c0.5,0,0.9,0.2,1.3,0.5c0.4,0.4,0.6,0.8,0.6,1.3
		v1.4c0,0.5-0.2,1-0.5,1.3c-0.4,0.4-0.8,0.5-1.3,0.5c-0.5,0-0.9-0.2-1.3-0.5c-0.4-0.4-0.6-0.8-0.6-1.3V51.2z M174.1,58.9
		c0-0.5,0.2-1,0.5-1.3c0.4-0.4,0.8-0.5,1.3-0.5c0.5,0,0.9,0.2,1.3,0.5c0.4,0.4,0.6,0.8,0.6,1.3v21c0,0.5-0.2,1-0.5,1.3
		c-0.4,0.4-0.8,0.5-1.3,0.5c-0.5,0-0.9-0.2-1.3-0.5c-0.4-0.4-0.6-0.8-0.6-1.3V58.9z"/>
</g>
<g>
	<path fill="#ED1C24" d="M182.4,65.8c0-1.2,0.2-2.3,0.7-3.4c0.5-1.1,1.1-2,1.9-2.8c0.8-0.8,1.7-1.4,2.8-1.9c1-0.5,2.2-0.7,3.4-0.7
		c1.2,0,2.3,0.2,3.4,0.7c1.1,0.5,2,1.1,2.8,1.9c0.8,0.8,1.4,1.7,1.9,2.8c0.5,1.1,0.7,2.2,0.7,3.4v14.1c0,0.5-0.2,1-0.6,1.3
		c-0.4,0.4-0.8,0.5-1.3,0.5c-0.5,0-1-0.2-1.3-0.5c-0.4-0.4-0.5-0.8-0.5-1.3V65.8c0-0.7-0.1-1.3-0.4-1.9c-0.3-0.6-0.6-1.2-1.1-1.6
		c-0.5-0.5-1-0.8-1.6-1.1c-0.6-0.3-1.3-0.4-2-0.4c-0.7,0-1.4,0.1-2,0.4c-0.6,0.3-1.2,0.6-1.6,1.1c-0.5,0.5-0.8,1-1.1,1.6
		c-0.3,0.6-0.4,1.3-0.4,1.9v14.1c0,0.5-0.2,1-0.6,1.3c-0.4,0.4-0.8,0.5-1.3,0.5c-0.5,0-1-0.2-1.3-0.5c-0.4-0.4-0.5-0.8-0.5-1.3V65.8
		z"/>
</g>
<g>
	<path fill="#ED1C24" d="M203.2,65.8c0-1.2,0.2-2.3,0.7-3.4c0.5-1.1,1.1-2,1.9-2.8c0.8-0.8,1.7-1.4,2.8-1.9c1-0.5,2.2-0.7,3.4-0.7
		c1.2,0,2.3,0.2,3.4,0.7c1.1,0.5,2,1.1,2.8,1.9c0.8,0.8,1.4,1.7,1.9,2.8c0.5,1.1,0.7,2.2,0.7,3.4v15.6c0,1.2-0.2,2.3-0.7,3.4
		c-0.5,1.1-1.1,2-1.9,2.8c-0.8,0.8-1.7,1.4-2.8,1.9c-1.1,0.5-2.2,0.7-3.4,0.7c-0.5,0-1-0.2-1.3-0.5c-0.4-0.4-0.5-0.8-0.5-1.3
		c0-0.5,0.2-1,0.5-1.3c0.4-0.4,0.8-0.5,1.3-0.5c0.7,0,1.3-0.1,2-0.4c0.6-0.3,1.2-0.6,1.6-1.1c0.5-0.5,0.8-1,1.1-1.6
		c0.3-0.6,0.4-1.3,0.4-1.9v-1.2c-1.5,1.1-3.2,1.6-5.1,1.6c-1.2,0-2.3-0.2-3.4-0.7c-1.1-0.5-2-1.1-2.8-1.9c-0.8-0.8-1.4-1.7-1.9-2.8
		c-0.5-1.1-0.7-2.2-0.7-3.4V65.8z M206.9,73c0,0.7,0.1,1.3,0.4,1.9c0.3,0.6,0.6,1.2,1.1,1.6c0.5,0.5,1,0.8,1.6,1.1
		c0.6,0.3,1.3,0.4,2,0.4c0.7,0,1.3-0.1,1.9-0.4c0.6-0.2,1.1-0.6,1.6-1c0.5-0.4,0.8-0.9,1.1-1.5c0.3-0.6,0.4-1.2,0.5-1.9v-7.5
		c0-0.7-0.1-1.3-0.4-1.9c-0.3-0.6-0.6-1.2-1.1-1.6c-0.5-0.5-1-0.8-1.6-1.1c-0.6-0.3-1.3-0.4-2-0.4c-0.7,0-1.4,0.1-2,0.4
		c-0.6,0.3-1.2,0.6-1.6,1.1c-0.5,0.5-0.8,1-1.1,1.6c-0.3,0.6-0.4,1.3-0.4,1.9V73z"/>
</g>
<g>
	<path fill="#ED1C24" d="M42,107.3c0-1.2,0.2-2.4,0.7-3.5c0.5-1.1,1.1-2.1,2-3c0.8-0.9,1.8-1.5,3-2c1.1-0.5,2.3-0.7,3.6-0.7
		c1.3,0,2.5,0.2,3.6,0.7c1.1,0.5,2.1,1.2,3,2c0.9,0.9,1.5,1.8,2,3c0.5,1.1,0.7,2.3,0.7,3.5v3.4c0,0.7-0.3,1.4-0.8,1.9
		c-0.5,0.5-1.1,0.8-1.8,0.8H47.2v0.8c0,1.1,0.4,2.1,1.2,2.9c0.8,0.8,1.8,1.2,2.9,1.2c0.4,0,0.9-0.1,1.5-0.3c0.6-0.2,1.1-0.5,1.6-1
		c0.3-0.4,0.6-0.7,1.1-1c0.5-0.3,1-0.5,1.5-0.5c0.5,0,0.9,0.2,1.3,0.5c0.3,0.2,0.6,0.5,0.8,0.9c0.2,0.4,0.3,0.7,0.3,1.1
		c0,0.2,0,0.5-0.1,0.8c-0.1,0.3-0.2,0.6-0.4,0.9c-0.7,1-1.7,1.9-2.9,2.6c-1.2,0.8-2.7,1.2-4.6,1.2c-1.3,0-2.5-0.2-3.6-0.7
		c-1.1-0.5-2.1-1.2-3-2c-0.9-0.9-1.5-1.8-2-2.9c-0.5-1.1-0.7-2.3-0.7-3.6V107.3z M47.2,108.1h8.3v-0.8c0-1.1-0.4-2.1-1.2-2.9
		c-0.8-0.8-1.8-1.2-3-1.2c-1.2,0-2.2,0.4-2.9,1.2c-0.8,0.8-1.2,1.8-1.2,2.9V108.1z"/>
</g>
<g>
	<path fill="#ED1C24" d="M64,92.8c0-0.8,0.3-1.4,0.8-1.9c0.5-0.5,1.1-0.8,1.9-0.8s1.4,0.3,1.9,0.8c0.5,0.5,0.8,1.2,0.8,1.9v1.4
		c0,0.7-0.3,1.4-0.8,1.9c-0.5,0.5-1.2,0.8-1.9,0.8c-0.7,0-1.3-0.3-1.9-0.8c-0.5-0.5-0.8-1.2-0.8-1.9V92.8z M64,100.8
		c0-0.8,0.3-1.4,0.8-1.9c0.5-0.5,1.1-0.8,1.9-0.8s1.4,0.3,1.9,0.8c0.5,0.5,0.8,1.2,0.8,1.9v19.9c0,0.8-0.3,1.4-0.8,1.9
		c-0.5,0.5-1.2,0.8-1.9,0.8c-0.7,0-1.3-0.3-1.9-0.8c-0.5-0.5-0.8-1.2-0.8-1.9V100.8z"/>
</g>
<g>
	<path fill="#ED1C24" d="M72.9,107.4c0-1.3,0.2-2.5,0.7-3.6c0.5-1.1,1.2-2.1,2-3c0.9-0.9,1.8-1.5,3-2c1.1-0.5,2.3-0.7,3.6-0.7
		c1.3,0,2.5,0.2,3.6,0.7c1.1,0.5,2.1,1.2,3,2c0.9,0.9,1.5,1.8,2,3c0.5,1.1,0.8,2.3,0.8,3.6v14.7c0,1.3-0.3,2.5-0.8,3.6
		c-0.5,1.1-1.2,2.1-2,3c-0.9,0.8-1.8,1.5-3,2c-1.1,0.5-2.3,0.7-3.6,0.7c-0.8,0-1.4-0.3-1.9-0.8c-0.5-0.5-0.8-1.2-0.8-1.9
		c0-0.7,0.3-1.4,0.8-1.9c0.5-0.5,1.2-0.8,1.9-0.8c1,0,1.8-0.3,2.6-1c0.8-0.7,1.2-1.5,1.3-2.5c-1.2,0.6-2.5,0.9-3.9,0.9
		c-1.3,0-2.5-0.2-3.6-0.7c-1.1-0.5-2.1-1.2-3-2c-0.9-0.9-1.5-1.8-2-3c-0.5-1.1-0.7-2.3-0.7-3.6V107.4z M78.3,114.1
		c0,0.5,0.1,1,0.3,1.5c0.2,0.5,0.5,0.9,0.9,1.2c0.4,0.4,0.8,0.6,1.3,0.8c0.5,0.2,1,0.3,1.5,0.3c1,0,1.9-0.4,2.7-1.1
		c0.8-0.7,1.2-1.6,1.2-2.6v-6.9c0-1.1-0.4-2-1.2-2.7c-0.8-0.8-1.7-1.1-2.8-1.1c-1.1,0-2.1,0.4-2.8,1.1c-0.8,0.8-1.1,1.7-1.1,2.7
		V114.1z"/>
</g>
<g>
	<path fill="#ED1C24" d="M95.1,107.3c0-1.2,0.2-2.4,0.7-3.5c0.5-1.1,1.1-2.1,2-3c0.8-0.9,1.8-1.5,3-2c1.1-0.5,2.3-0.7,3.6-0.7
		c1.3,0,2.5,0.2,3.6,0.7c1.1,0.5,2.1,1.2,3,2c0.9,0.9,1.5,1.8,2,3c0.5,1.1,0.7,2.3,0.7,3.5v3.4c0,0.7-0.3,1.4-0.8,1.9
		c-0.5,0.5-1.1,0.8-1.8,0.8h-10.9v0.8c0,1.1,0.4,2.1,1.2,2.9c0.8,0.8,1.8,1.2,2.9,1.2c0.4,0,0.9-0.1,1.5-0.3c0.6-0.2,1.1-0.5,1.6-1
		c0.3-0.4,0.6-0.7,1.1-1c0.5-0.3,1-0.5,1.5-0.5c0.5,0,0.9,0.2,1.3,0.5c0.3,0.2,0.6,0.5,0.8,0.9c0.2,0.4,0.3,0.7,0.3,1.1
		c0,0.2,0,0.5-0.1,0.8c-0.1,0.3-0.2,0.6-0.4,0.9c-0.7,1-1.7,1.9-2.9,2.6c-1.2,0.8-2.7,1.2-4.6,1.2c-1.3,0-2.5-0.2-3.6-0.7
		c-1.1-0.5-2.1-1.2-3-2c-0.9-0.9-1.5-1.8-2-2.9c-0.5-1.1-0.7-2.3-0.7-3.6V107.3z M100.3,108.1h8.3v-0.8c0-1.1-0.4-2.1-1.2-2.9
		c-0.8-0.8-1.8-1.2-3-1.2c-1.2,0-2.2,0.4-2.9,1.2c-0.8,0.8-1.2,1.8-1.2,2.9V108.1z"/>
</g>
<g>
	<path fill="#ED1C24" d="M117.3,107.4c0-1.3,0.2-2.5,0.7-3.6c0.5-1.1,1.2-2.1,2-3c0.9-0.9,1.8-1.5,3-2c1.1-0.5,2.3-0.7,3.6-0.7
		c1.3,0,2.5,0.2,3.6,0.7c1.1,0.5,2.1,1.2,3,2c0.9,0.9,1.5,1.8,2,3c0.5,1.1,0.7,2.3,0.7,3.6v13.3c0,0.8-0.3,1.4-0.8,1.9
		c-0.5,0.5-1.2,0.8-1.9,0.8c-0.7,0-1.4-0.3-1.9-0.8c-0.5-0.5-0.8-1.2-0.8-1.9v-13.3c0-0.5-0.1-1-0.3-1.5c-0.2-0.5-0.5-0.9-0.9-1.2
		c-0.4-0.4-0.8-0.6-1.3-0.8c-0.5-0.2-1-0.3-1.5-0.3c-1.1,0-2,0.4-2.8,1.1c-0.8,0.8-1.2,1.7-1.2,2.7v13.3c0,0.8-0.3,1.4-0.8,1.9
		c-0.5,0.5-1.2,0.8-1.9,0.8c-0.8,0-1.4-0.3-1.9-0.8c-0.5-0.5-0.8-1.2-0.8-1.9V107.4z"/>
</g>
<g>
	<path fill="#ED1C24" d="M149.5,92.9c0-0.8,0.3-1.4,0.8-1.9c0.5-0.5,1.2-0.8,1.9-0.8c0.7,0,1.3,0.3,1.9,0.8c0.5,0.5,0.8,1.2,0.8,1.9
		v6c0.6-0.3,1.2-0.5,1.9-0.7c0.7-0.2,1.3-0.3,2.1-0.3c1.3,0,2.5,0.2,3.6,0.7c1.1,0.5,2.1,1.2,3,2c0.9,0.9,1.5,1.8,2,3
		c0.5,1.1,0.7,2.3,0.7,3.6v13.3c0,0.8-0.3,1.4-0.8,1.9c-0.5,0.5-1.2,0.8-1.9,0.8c-0.7,0-1.4-0.3-1.9-0.8c-0.5-0.5-0.8-1.2-0.8-1.9
		v-13.3c0-1.1-0.4-2-1.2-2.7c-0.8-0.8-1.7-1.1-2.8-1.1c-1.1,0-2,0.4-2.8,1.1c-0.7,0.7-1.1,1.6-1.2,2.7v13.4c0,0.8-0.3,1.4-0.8,1.9
		c-0.5,0.5-1.2,0.8-1.9,0.8c-0.8,0-1.4-0.3-1.9-0.8c-0.5-0.5-0.8-1.2-0.8-1.9V92.9z"/>
</g>
<g>
	<path fill="#ED1C24" d="M171.7,100.8c0-0.8,0.3-1.4,0.8-1.9c0.5-0.5,1.2-0.8,1.9-0.8c0.7,0,1.3,0.3,1.9,0.8
		c0.5,0.5,0.8,1.2,0.8,1.9v13.3c0,1.1,0.4,2,1.2,2.7c0.8,0.8,1.7,1.1,2.8,1.1c0.5,0,1-0.1,1.5-0.3c0.5-0.2,0.9-0.5,1.3-0.8
		c0.4-0.4,0.6-0.8,0.9-1.2c0.2-0.5,0.3-1,0.3-1.5v-13.3c0-0.8,0.3-1.4,0.8-1.9c0.5-0.5,1.1-0.8,1.9-0.8c0.7,0,1.4,0.3,1.9,0.8
		c0.5,0.5,0.8,1.2,0.8,1.9v13.3c0,1.3-0.2,2.5-0.7,3.6c-0.5,1.1-1.2,2.1-2,3c-0.9,0.9-1.9,1.5-3,2c-1.1,0.5-2.3,0.7-3.6,0.7
		c-1.3,0-2.5-0.2-3.6-0.7c-1.1-0.5-2.1-1.2-3-2c-0.9-0.9-1.5-1.8-2-3c-0.5-1.1-0.7-2.3-0.7-3.6V100.8z"/>
</g>
<g>
	<path fill="#ED1C24" d="M194,92.8c0-0.8,0.3-1.4,0.8-1.9c0.5-0.5,1.1-0.8,1.9-0.8c0.7,0,1.4,0.3,1.9,0.8c0.5,0.5,0.8,1.2,0.8,1.9
		v1.4c0,0.7-0.3,1.4-0.8,1.9c-0.5,0.5-1.2,0.8-1.9,0.8c-0.7,0-1.3-0.3-1.9-0.8c-0.5-0.5-0.8-1.2-0.8-1.9V92.8z M194,100.8
		c0-0.8,0.3-1.4,0.8-1.9c0.5-0.5,1.1-0.8,1.9-0.8c0.7,0,1.4,0.3,1.9,0.8c0.5,0.5,0.8,1.2,0.8,1.9v19.9c0,0.8-0.3,1.4-0.8,1.9
		c-0.5,0.5-1.2,0.8-1.9,0.8c-0.7,0-1.3-0.3-1.9-0.8c-0.5-0.5-0.8-1.2-0.8-1.9V100.8z"/>
</g>
<g>
	<path fill="#ED1C24" d="M202.9,105.5c0-1.1,0.2-2.1,0.7-3c0.4-0.9,1-1.7,1.8-2.3c0.8-0.7,1.7-1.2,2.8-1.5c1.1-0.4,2.3-0.6,3.5-0.6
		c1,0,2,0.2,3,0.5c0.8,0.3,1.7,0.7,2.6,1.2c0.9,0.5,1.6,1.3,2.2,2.3c0.3,0.5,0.5,1,0.5,1.5c0,0.7-0.3,1.4-0.8,1.9
		c-0.5,0.5-1.1,0.8-1.9,0.8c-0.4,0-0.8-0.1-1.2-0.3c-0.4-0.2-0.7-0.5-1-0.8v0.1c-0.5-0.6-1-1-1.5-1.3c-0.5-0.3-1.2-0.4-2-0.4
		c-1,0-1.9,0.2-2.5,0.6c-0.6,0.4-1,0.9-1,1.4c0,0.8,0.3,1.3,0.9,1.6c0.6,0.3,1.5,0.5,2.5,0.5c1.3,0,2.5,0.2,3.6,0.5
		c1.1,0.3,2.1,0.8,3,1.5c0.9,0.7,1.5,1.5,2,2.5c0.5,1,0.7,2.1,0.7,3.4c0,1.3-0.3,2.5-0.8,3.5c-0.5,1-1.2,1.8-2,2.5
		c-0.9,0.7-1.9,1.2-3,1.5c-1.2,0.3-2.4,0.5-3.6,0.5c-0.3,0-0.8,0-1.5-0.1c-0.7-0.1-1.6-0.3-2.5-0.7c-0.9-0.4-1.8-0.9-2.7-1.7
		c-0.9-0.8-1.7-1.9-2.3-3.2c-0.1-0.3-0.2-0.6-0.2-1c0-0.7,0.3-1.4,0.8-1.9c0.5-0.5,1.2-0.8,1.9-0.8c0.6,0,1.1,0.2,1.5,0.5
		c0.4,0.3,0.8,0.7,1,1.2c0.3,0.8,0.9,1.4,1.7,1.8c0.8,0.4,1.6,0.6,2.4,0.6c1.1,0,2-0.2,2.8-0.5c0.8-0.4,1.2-1,1.2-2
		c0-1-0.4-1.6-1.1-2c-0.8-0.4-1.7-0.5-2.8-0.5c-1.3,0-2.5-0.1-3.5-0.4c-1.1-0.3-2-0.7-2.8-1.2c-0.8-0.6-1.4-1.3-1.8-2.3
		C203.1,108.1,202.9,106.9,202.9,105.5"/>
</g>
<g>
	<path fill="#F7931E" d="M409.4,63.8c0-1,0.2-1.9,0.6-2.8c0.4-0.8,1-1.6,1.7-2.2c0.7-0.6,1.6-1.1,2.6-1.4c1-0.3,2.1-0.5,3.3-0.5
		c1,0,1.9,0.2,2.8,0.4c0.8,0.2,1.6,0.6,2.4,1.1c0.8,0.5,1.5,1.2,2,2.1c0.2,0.5,0.3,0.8,0.3,1.2c0,0.5-0.2,0.9-0.5,1.3
		c-0.3,0.4-0.8,0.5-1.2,0.5c-0.6,0-1.1-0.3-1.5-0.8c-0.6-0.7-1.2-1.3-1.8-1.6c-0.6-0.3-1.4-0.5-2.5-0.5c-1.4,0-2.5,0.3-3.3,0.9
		c-0.8,0.6-1.3,1.3-1.3,2.2c0,1.2,0.4,2,1.2,2.5c0.8,0.5,1.9,0.8,3.4,0.8c1.2,0,2.3,0.2,3.4,0.5c1.1,0.3,2,0.8,2.8,1.4
		c0.8,0.6,1.4,1.4,1.9,2.3c0.5,0.9,0.7,2,0.7,3.1c0,1.2-0.2,2.3-0.7,3.2c-0.5,0.9-1.1,1.7-1.9,2.3c-0.8,0.6-1.8,1.1-2.9,1.4
		c-1.1,0.3-2.2,0.4-3.4,0.4c-0.3,0-0.7,0-1.4-0.1c-0.7-0.1-1.5-0.3-2.3-0.7c-0.8-0.4-1.7-0.9-2.5-1.6c-0.9-0.7-1.6-1.7-2.2-3
		c-0.1-0.2-0.1-0.5-0.1-0.7c0-0.5,0.2-0.9,0.5-1.3c0.3-0.4,0.8-0.6,1.3-0.6c0.4,0,0.7,0.1,1,0.3c0.3,0.2,0.5,0.5,0.7,0.8
		c0.4,1,1.1,1.7,2.1,2.3c1,0.5,2,0.8,3,0.8c0.7,0,1.3-0.1,2-0.2c0.6-0.1,1.2-0.3,1.6-0.6c0.5-0.3,0.8-0.6,1.1-1.1
		c0.3-0.5,0.4-1,0.4-1.7c0-1.4-0.5-2.3-1.5-2.8c-1-0.5-2.2-0.8-3.6-0.8c-1.2,0-2.3-0.1-3.3-0.4c-1-0.2-1.9-0.6-2.6-1.2
		c-0.7-0.6-1.3-1.3-1.7-2.2C409.6,66.2,409.4,65.1,409.4,63.8z"/>
</g>
<g>
	<path fill="#F7931E" d="M432.9,79.1c-0.8-0.8-1.4-1.7-1.9-2.8c-0.5-1-0.7-2.2-0.7-3.4V61.1h-0.8c-0.5,0-1-0.2-1.3-0.6
		c-0.4-0.4-0.5-0.8-0.5-1.3c0-0.5,0.2-1,0.5-1.3c0.4-0.4,0.8-0.5,1.3-0.5h0.8v-5.8c0-0.5,0.2-1,0.5-1.3c0.4-0.4,0.8-0.5,1.3-0.5
		c0.5,0,0.9,0.2,1.3,0.5c0.4,0.4,0.6,0.8,0.6,1.3v5.8h7.6c0.5,0,1,0.2,1.3,0.5c0.4,0.4,0.5,0.8,0.5,1.3c0,0.5-0.2,0.9-0.5,1.3
		c-0.4,0.4-0.8,0.6-1.3,0.6H434v11.8c0,0.5,0.1,1,0.3,1.6c0.2,0.6,0.5,1.1,0.9,1.6c0.4,0.5,0.9,0.9,1.6,1.3c0.6,0.3,1.4,0.5,2.3,0.5
		c1.5,0,2.7-0.6,3.8-1.7c0.4-0.4,0.8-0.6,1.4-0.6c0.5,0,1,0.2,1.3,0.6c0.4,0.4,0.6,0.8,0.6,1.3c0,0.4-0.2,0.8-0.5,1.2
		c-0.9,1-1.9,1.8-3,2.3c-1.1,0.5-2.3,0.8-3.6,0.8c-1,0-2-0.2-3-0.6c-1-0.4-1.9-0.9-2.7-1.7L432.9,79.1z"/>
</g>
<g>
	<path fill="#F7931E" d="M447.4,72c0-1.2,0.2-2.3,0.7-3.3c0.5-1,1.1-1.9,1.9-2.7c0.8-0.7,1.7-1.3,2.8-1.7c1.1-0.4,2.2-0.6,3.4-0.6
		c0.8,0,1.5,0.1,2.2,0.3c0.6,0.2,1.2,0.4,1.6,0.6c0.5,0.3,1,0.5,1.3,0.8c-0.2-1.2-0.6-2.1-1.2-2.8c-0.6-0.7-1.3-1.2-2-1.4
		c-0.8-0.3-1.5-0.4-2.3-0.3c-0.8,0.1-1.5,0.3-2.1,0.6c-0.5,0.3-0.9,0.3-1.4,0.2c-0.5-0.1-0.9-0.4-1.1-0.9c-0.3-0.5-0.3-0.9-0.1-1.4
		s0.5-0.9,0.9-1.1c1.1-0.7,2.4-1.1,3.9-1.2c1.5,0,2.9,0.3,4.3,0.9c1.3,0.7,2.5,1.7,3.4,3c0.9,1.3,1.4,3,1.4,5.1V73
		c0,1.2-0.2,2.4-0.7,3.4c-0.5,1-1.1,2-1.9,2.8c-0.8,0.8-1.7,1.4-2.8,1.9c-1.1,0.5-2.2,0.7-3.4,0.7c-1.2,0-2.4-0.2-3.4-0.7
		c-1-0.5-2-1.1-2.8-1.9c-0.8-0.8-1.4-1.7-1.9-2.8c-0.5-1-0.7-2.2-0.7-3.4V72z M451.1,73c0,0.7,0.1,1.3,0.4,1.9
		c0.3,0.6,0.6,1.2,1.1,1.6c0.5,0.5,1,0.8,1.6,1.1c0.6,0.3,1.3,0.4,2,0.4c0.7,0,1.3-0.1,2-0.4c0.6-0.3,1.2-0.6,1.6-1.1
		c0.5-0.5,0.8-1,1.1-1.6c0.3-0.6,0.4-1.3,0.4-1.9v-1.1c-0.1-1.4-0.6-2.5-1.5-3.3c-1-0.9-2.1-1.3-3.5-1.3c-1.4,0-2.6,0.4-3.6,1.3
		c-1,0.9-1.5,2-1.5,3.4V73z"/>
</g>
<g>
	<path fill="#F7931E" d="M409.4,105.6c0-1.1,0.2-2.1,0.7-3c0.4-0.9,1-1.7,1.8-2.3c0.8-0.7,1.7-1.2,2.8-1.5c1.1-0.4,2.3-0.6,3.5-0.6
		c1,0,2,0.2,3,0.5c0.8,0.3,1.7,0.7,2.6,1.2c0.9,0.5,1.6,1.3,2.2,2.3c0.3,0.5,0.5,1,0.5,1.5c0,0.7-0.3,1.4-0.8,1.9
		c-0.5,0.5-1.1,0.8-1.9,0.8c-0.4,0-0.8-0.1-1.2-0.3c-0.4-0.2-0.7-0.5-1-0.8v0.1c-0.5-0.6-1-1-1.5-1.3c-0.5-0.3-1.2-0.4-2-0.4
		c-1,0-1.9,0.2-2.5,0.6c-0.6,0.4-1,0.9-1,1.4c0,0.8,0.3,1.3,0.9,1.6c0.6,0.3,1.5,0.5,2.5,0.5c1.3,0,2.5,0.2,3.6,0.5s2.1,0.8,3,1.5
		c0.9,0.7,1.5,1.5,2,2.5c0.5,1,0.7,2.1,0.7,3.4c0,1.3-0.3,2.5-0.8,3.5c-0.5,1-1.2,1.8-2,2.5s-1.9,1.1-3,1.5
		c-1.2,0.3-2.4,0.5-3.6,0.5c-0.3,0-0.8,0-1.5-0.1c-0.7-0.1-1.6-0.3-2.5-0.7c-0.9-0.4-1.8-0.9-2.7-1.7c-0.9-0.8-1.7-1.9-2.3-3.2
		c-0.1-0.3-0.2-0.6-0.2-1c0-0.7,0.3-1.4,0.8-1.9c0.5-0.5,1.2-0.8,1.9-0.8c0.6,0,1.1,0.2,1.5,0.5c0.4,0.3,0.8,0.7,1,1.2
		c0.3,0.8,0.9,1.4,1.7,1.8c0.8,0.4,1.6,0.6,2.4,0.6c1.1,0,2-0.2,2.8-0.5c0.8-0.4,1.2-1,1.2-2c0-1-0.4-1.6-1.1-2
		c-0.8-0.4-1.7-0.5-2.8-0.5c-1.3,0-2.4-0.1-3.5-0.4c-1.1-0.3-2-0.7-2.8-1.2c-0.8-0.6-1.4-1.3-1.8-2.3
		C409.6,108.1,409.4,107,409.4,105.6z"/>
</g>
<g>
	<path fill="#F7931E" d="M434.5,120.7c-0.8-0.8-1.5-1.8-2-2.9c-0.5-1.1-0.7-2.3-0.7-3.6v-10.8h-0.1c-0.7,0-1.3-0.2-1.8-0.8
		s-0.8-1.1-0.8-1.8c0-0.7,0.3-1.3,0.8-1.8s1.1-0.8,1.8-0.8h0.1v-5c0-0.7,0.2-1.3,0.7-1.8c0.4-0.5,1-0.8,1.7-0.8
		c0.7,0,1.3,0.3,1.9,0.8c0.6,0.5,0.9,1.1,0.9,1.8v5h6.8c0.7,0,1.3,0.3,1.8,0.8s0.8,1.1,0.8,1.8c0,0.7-0.3,1.3-0.8,1.8
		s-1.1,0.8-1.8,0.8h-6.8v10.8c0,0.4,0.1,0.9,0.2,1.4s0.4,1,0.8,1.4c0.3,0.4,0.8,0.8,1.3,1.1c0.5,0.3,1.2,0.4,2,0.4
		c1.2,0,2.3-0.5,3.2-1.4c0.5-0.6,1.1-0.9,1.9-0.9c0.7,0,1.3,0.3,1.8,0.8c0.5,0.5,0.8,1.1,0.8,1.8c0,0.3-0.1,0.6-0.2,0.9
		c-0.1,0.3-0.3,0.5-0.5,0.8c-0.9,1-2,1.8-3.2,2.4c-1.2,0.5-2.5,0.8-3.7,0.8c-1.1,0-2.1-0.2-3.2-0.6c-1.1-0.4-2-1-2.9-1.8
		L434.5,120.7z"/>
</g>
<g>
	<path fill="#F7931E" d="M449.9,107.4c0-1.2,0.2-2.4,0.7-3.5s1.1-2.1,2-3c0.8-0.9,1.8-1.5,3-2s2.3-0.7,3.6-0.7s2.5,0.2,3.6,0.7
		c1.1,0.5,2.1,1.2,3,2c0.9,0.9,1.5,1.8,2,3c0.5,1.1,0.7,2.3,0.7,3.5v3.4c0,0.7-0.3,1.4-0.8,1.9s-1.1,0.8-1.8,0.8h-10.9v0.8
		c0,1.1,0.4,2.1,1.2,2.9c0.8,0.8,1.8,1.2,2.9,1.2c0.4,0,0.9-0.1,1.5-0.2c0.6-0.2,1.1-0.5,1.6-1c0.3-0.4,0.6-0.7,1.1-1
		c0.5-0.3,1-0.5,1.5-0.5c0.5,0,0.9,0.2,1.3,0.5c0.3,0.2,0.6,0.5,0.8,0.9c0.2,0.4,0.3,0.7,0.3,1.1c0,0.2,0,0.5-0.1,0.8
		c-0.1,0.3-0.2,0.6-0.4,0.9c-0.7,1-1.7,1.8-2.9,2.6c-1.2,0.8-2.7,1.2-4.6,1.2c-1.3,0-2.5-0.2-3.6-0.7c-1.1-0.5-2.1-1.2-3-2
		s-1.5-1.8-2-2.9s-0.7-2.3-0.7-3.6V107.4z M455.1,108.2h8.3v-0.8c0-1.1-0.4-2.1-1.2-2.9s-1.8-1.2-3-1.2s-2.1,0.4-2.9,1.2
		c-0.8,0.8-1.2,1.7-1.2,2.9V108.2z"/>
</g>
<g>
	<path fill="#F7931E" d="M471.1,109.2c0-1.4,0.1-2.6,0.3-3.6c0.2-1,0.4-1.8,0.7-2.5c0.3-0.7,0.6-1.3,1-1.7c0.4-0.5,0.8-0.8,1.2-1.2
		c0.9-0.8,1.8-1.4,2.9-1.7c1-0.3,2.2-0.5,3.5-0.5c1.3,0.1,2.3,0.3,3,0.5c0.7,0.3,1.4,0.6,2,1.1c0.6,0.5,0.9,1.2,0.9,2
		c0,0.8-0.3,1.4-0.8,1.9c-0.5,0.5-1.2,0.7-1.9,0.7c-0.3,0-0.5,0-0.8,0c-0.2,0-0.5-0.2-0.8-0.4c-0.3-0.1-0.6-0.3-0.9-0.4
		c-0.3-0.1-0.6-0.2-1-0.2c-1.1,0-2,0.4-2.8,1.1c-0.8,0.7-1.2,1.6-1.2,2.7v13.6c0,0.8-0.3,1.4-0.8,1.9c-0.5,0.5-1.1,0.8-1.9,0.8
		c-0.7,0-1.4-0.3-1.9-0.8c-0.5-0.5-0.8-1.2-0.8-1.9V109.2z"/>
</g>
<g>
	<path fill="#F7931E" d="M488.2,93.4c0-0.7,0.3-1.3,0.8-1.8c0.5-0.5,1.1-0.8,1.8-0.8c0.7,0,1.3,0.3,1.8,0.8c0.5,0.5,0.8,1.1,0.8,1.8
		v11.9c1.4-1.1,2.7-2.2,4.1-3.3c1.4-1.1,2.7-2.2,4.1-3.3c0.5-0.4,1-0.6,1.6-0.6c0.6,0,1.2,0.2,1.7,0.7c0.5,0.5,0.8,1.1,0.8,1.8
		c0,0.7-0.3,1.4-0.9,2l-8,6.4c1.6,1.7,3.3,3.4,5,5.1s3.4,3.4,5,5.1v0c0.5,0.4,0.7,1,0.7,1.7c0,0.6-0.3,1.2-0.8,1.7s-1.1,0.8-1.8,0.8
		c-0.8,0-1.5-0.3-2-0.9v0c-0.9-0.9-1.7-1.7-2.5-2.5c-0.8-0.8-1.5-1.5-2.3-2.3s-1.5-1.5-2.3-2.3c-0.8-0.8-1.6-1.6-2.5-2.5v7.9
		c0,0.7-0.2,1.3-0.7,1.8c-0.5,0.5-1.1,0.8-1.8,0.8c-0.7,0-1.3-0.2-1.8-0.8s-0.8-1.1-0.8-1.8V93.4z"/>
</g>
<g>
	<path fill="#F7931E" d="M507.1,107.4c0-1.2,0.2-2.4,0.7-3.5s1.1-2.1,2-3c0.8-0.9,1.8-1.5,3-2s2.3-0.7,3.6-0.7s2.5,0.2,3.6,0.7
		c1.1,0.5,2.1,1.2,3,2c0.9,0.9,1.5,1.8,2,3c0.5,1.1,0.7,2.3,0.7,3.5v3.4c0,0.7-0.3,1.4-0.8,1.9s-1.1,0.8-1.8,0.8h-10.9v0.8
		c0,1.1,0.4,2.1,1.2,2.9c0.8,0.8,1.8,1.2,2.9,1.2c0.4,0,0.9-0.1,1.5-0.2c0.6-0.2,1.1-0.5,1.6-1c0.3-0.4,0.6-0.7,1.1-1
		c0.5-0.3,1-0.5,1.5-0.5c0.5,0,0.9,0.2,1.3,0.5c0.3,0.2,0.6,0.5,0.8,0.9c0.2,0.4,0.3,0.7,0.3,1.1c0,0.2,0,0.5-0.1,0.8
		c-0.1,0.3-0.2,0.6-0.4,0.9c-0.7,1-1.7,1.8-2.9,2.6c-1.2,0.8-2.7,1.2-4.6,1.2c-1.3,0-2.5-0.2-3.6-0.7c-1.1-0.5-2.1-1.2-3-2
		s-1.5-1.8-2-2.9s-0.7-2.3-0.7-3.6V107.4z M512.3,108.2h8.3v-0.8c0-1.1-0.4-2.1-1.2-2.9s-1.8-1.2-3-1.2s-2.1,0.4-2.9,1.2
		c-0.8,0.8-1.2,1.7-1.2,2.9V108.2z"/>
</g>
<g>
	<path fill="#F7931E" d="M528.3,109.2c0-1.4,0.1-2.6,0.3-3.6c0.2-1,0.4-1.8,0.7-2.5c0.3-0.7,0.6-1.3,1-1.7c0.4-0.5,0.8-0.8,1.2-1.2
		c0.9-0.8,1.8-1.4,2.9-1.7c1-0.3,2.2-0.5,3.5-0.5c1.3,0.1,2.3,0.3,3,0.5c0.7,0.3,1.4,0.6,2,1.1c0.6,0.5,0.9,1.2,0.9,2
		c0,0.8-0.3,1.4-0.8,1.9c-0.5,0.5-1.2,0.7-1.9,0.7c-0.3,0-0.5,0-0.8,0c-0.2,0-0.5-0.2-0.8-0.4c-0.3-0.1-0.6-0.3-0.9-0.4
		c-0.3-0.1-0.6-0.2-1-0.2c-1.1,0-2,0.4-2.8,1.1c-0.8,0.7-1.2,1.6-1.2,2.7v13.6c0,0.8-0.3,1.4-0.8,1.9c-0.5,0.5-1.1,0.8-1.9,0.8
		c-0.7,0-1.4-0.3-1.9-0.8c-0.5-0.5-0.8-1.2-0.8-1.9V109.2z"/>
</g>
</svg>
