<svg xmlns="http://www.w3.org/2000/svg" viewBox="0 0 803 803"><defs><style>.cls-1{isolation:isolate;}.cls-2{fill-rule:evenodd;}</style></defs><title>XL logo final KLEIN</title><g id="Rectangle_1" data-name="Rectangle 1" class="cls-1"><g id="Rectangle_1-2" data-name="Rectangle 1"><path d="M833,70V833H70V70H833m20-20H50V853H853V50h0Z" transform="translate(-50 -50)"/></g></g><g id="Rectangle_2_copy_2" data-name="Rectangle 2 copy 2" class="cls-1"><g id="Rectangle_2_copy_2-2" data-name="Rectangle 2 copy 2"><polygon class="cls-2" points="424.95 445.55 333.85 300.49 333.95 300.49 333.59 299.92 424.11 155.43 340.05 155.43 291.51 232.91 242.85 155.43 158.59 155.43 249.38 300 158.01 445.24 242.07 445.24 291.32 366.95 340.68 445.55 424.95 445.55"/></g></g><g id="family_copy_7" data-name="family copy 7" class="cls-1"><g id="family_copy_7-2" data-name="family copy 7"><path class="cls-2" d="M227,564.59v9H210.24v18.55H227v75.1h22.44v-75.1h25V573.59h-25v-8.64c0-6.66,4.13-11.35,12.21-11.35A71.52,71.52,0,0,1,276.4,555V537a76.36,76.36,0,0,0-17.59-2C238.7,535,227,547.3,227,564.59ZM363.23,644V609.25c0-6.3-.36-13-2.69-18.91-5.39-14-19-19.09-35-19.09-20.82,0-37.52,9.36-38.77,30.44h21.72c0.54-8.64,6.64-13.33,17.05-13.33,12.74,0,15.8,5.94,15.8,14.77v5.76l-27.46,2c-17.77,1.26-31.59,11.53-31.59,29.36,0,15.31,11.49,29.36,33.75,29.36,13.28,0,24.05-6.48,28.36-14,0.72,7,6.1,13.15,15.8,13.15,5.39,0,7.36-.9,11.13-2.52V649.59a13.54,13.54,0,0,1-2.87.36C364.66,650,363.23,648.33,363.23,644Zm-21.9-14c0,13.87-9.87,21.43-23.87,21.43-7,0-13.28-4.5-13.28-11.71,0-7.56,6.64-11.71,13.46-12.25l23.69-1.8V630Zm141.15-58.71c-12.56,0-22.62,5.58-28.18,15.31-4.67-9.55-13.64-15.31-26.75-15.31-12.39,0-21.36,6.12-26.57,14.77l-1.8-12.43H380.52v93.65h22.26V616.09c0-11.71,5.74-25.21,18.49-25.21,11.31,0,14.36,6.66,14.36,18.19v58.17h22.26V616.09c0-11.71,5.56-25.21,18.31-25.21,11.31,0,14.36,6.66,14.36,18.19v58.17h22.26V604C512.81,584.58,502.4,571.25,482.48,571.25Zm47.43,96h22.8V573.59H529.9v93.65Zm-0.72-106.62h24.05V537.39H529.19v23.23Zm62.57,78.7V537H569.14V643.11c0,17.83,10.23,25.21,25.49,25.21,4.49,0,5.39-.36,9.87-1.26V648.15c-1.26,0-1.8.18-3.77,0.18C593,648.33,591.75,644.73,591.75,639.33Zm86.54-65.74L655,641.31l-24.41-67.72H606l36.8,93.47-5.39,13.15c-2.33,5.58-6.64,7-10.77,7-5,0-6.64-.54-12.57-1.62v18.73a63.17,63.17,0,0,0,17.23,2.34c16.33,0,24.05-11.17,28.72-23.41l40.75-109.68H678.29Z" transform="translate(-50 -50)"/></g></g><g id="L" class="cls-1"><g id="L-2" data-name="L"><path class="cls-2" d="M604.84,426.16c-11.53,0-24.65.4-24.65-20.64V205.43H503V433.31c0,44.85,29.82,61.92,66,61.92H703.57V426.16H604.84Z" transform="translate(-50 -50)"/></g></g></svg>