<?xml version="1.0" encoding="utf-8"?>
<!-- Generator: Adobe Illustrator 19.2.0, SVG Export Plug-In . SVG Version: 6.00 Build 0)  -->
<svg version="1.1" xmlns="http://www.w3.org/2000/svg" xmlns:xlink="http://www.w3.org/1999/xlink" x="0px" y="0px"
	 viewBox="0 0 903 903" style="enable-background:new 0 0 903 903;" xml:space="preserve">
<style type="text/css">
	.st0{enable-background:new    ;}
	.st1{fill-rule:evenodd;clip-rule:evenodd;fill:none;stroke:#000000;stroke-width:15;stroke-miterlimit:100;}
	.st2{fill-rule:evenodd;clip-rule:evenodd;}
</style>
<g id="Rectangle_1_1_" class="st0">
	<g id="Rectangle_1">
		<g>
			<path d="M848,55v793H55V55H848 M853,50H50v803h803V50L853,50z"/>
		</g>
	</g>
	<rect x="50" y="50" class="st1" width="803" height="803"/>
</g>
<g id="Rectangle_2_copy_2_1_" class="st0">
	<g id="Rectangle_2_copy_2_2_">
		<g>
			<polygon class="st2" points="474.9,495.5 383.8,350.5 384,350.5 383.6,349.9 474.1,205.4 390,205.4 341.5,282.9 292.9,205.4 
				208.6,205.4 299.4,350 208,495.2 292.1,495.2 341.3,417 390.7,495.5 			"/>
		</g>
	</g>
</g>
<g id="family_copy_7_1_" class="st0">
	<g id="family_copy_7_2_">
		<g>
			<path class="st2" d="M227,564.6v9h-16.8v18.6H227v75.1h22.4v-75.1h25v-18.6h-25v-8.6c0-6.7,4.1-11.3,12.2-11.3
				c5.9,0,10.1,0.5,14.7,1.4v-18c-7-1.4-11.1-2-17.6-2C238.7,535,227,547.3,227,564.6z M363.2,644v-34.8c0-6.3-0.4-13-2.7-18.9
				c-5.4-14-19-19.1-35-19.1c-20.8,0-37.5,9.4-38.8,30.4h21.7c0.5-8.6,6.6-13.3,17.1-13.3c12.7,0,15.8,5.9,15.8,14.8v5.8l-27.5,2
				c-17.8,1.3-31.6,11.5-31.6,29.4c0,15.3,11.5,29.4,33.7,29.4c13.3,0,24.1-6.5,28.4-14c0.7,7,6.1,13.1,15.8,13.1
				c5.4,0,7.4-0.9,11.1-2.5v-16.6c0,0-1.4,0.4-2.9,0.4C364.7,650,363.2,648.3,363.2,644z M341.3,630c0,13.9-9.9,21.4-23.9,21.4
				c-7,0-13.3-4.5-13.3-11.7c0-7.6,6.6-11.7,13.5-12.2l23.7-1.8V630z M482.5,571.2c-12.6,0-22.6,5.6-28.2,15.3
				c-4.7-9.5-13.6-15.3-26.7-15.3c-12.4,0-21.4,6.1-26.6,14.8l-1.8-12.4h-18.7v93.7h22.3v-51.1c0-11.7,5.7-25.2,18.5-25.2
				c11.3,0,14.4,6.7,14.4,18.2v58.2h22.3v-51.1c0-11.7,5.6-25.2,18.3-25.2c11.3,0,14.4,6.7,14.4,18.2v58.2h22.3V604
				C512.8,584.6,502.4,571.2,482.5,571.2z M529.9,667.2h22.8v-93.7h-22.8V667.2z M529.2,560.6h24.1v-23.2h-24.1V560.6z M591.8,639.3
				V537h-22.6v106.1c0,17.8,10.2,25.2,25.5,25.2c4.5,0,5.4-0.4,9.9-1.3v-18.9c-1.3,0-1.8,0.2-3.8,0.2
				C593,648.3,591.8,644.7,591.8,639.3z M678.3,573.6L655,641.3l-24.4-67.7H606l36.8,93.5l-5.4,13.1c-2.3,5.6-6.6,7-10.8,7
				c-5,0-6.6-0.5-12.6-1.6v18.7c4.8,1.3,9.9,2.3,17.2,2.3c16.3,0,24.1-11.2,28.7-23.4l40.7-109.7L678.3,573.6z"/>
		</g>
	</g>
</g>
<g id="L_1_" class="st0">
	<g id="L_4_">
		<g>
			<path class="st2" d="M604.8,426.2c-11.5,0-24.7,0.4-24.7-20.6l0-200.1H503l0,227.9c0,44.9,29.8,61.9,66,61.9h134.5v-69.1H604.8z"
				/>
		</g>
	</g>
</g>
</svg>
